<svg width="75" height="75" viewBox="0 0 75 75" fill="none" xmlns="http://www.w3.org/2000/svg">
<g clip-path="url(#clip0)">
<rect width="75" height="75" fill="white"/>
<path d="M61.25 0H13.75C10.3 0.0040625 7.50406 2.8 7.5 6.25V40C7.50406 43.45 10.3 46.2459 13.75 46.25H30.8425L29.0575 52.5H25V55H50V52.5H45.9425L44.1575 46.25H61.25C64.7 46.2459 67.496 43.45 67.5 40V6.25C67.496 2.8 64.7 0.0040625 61.25 0ZM31.6575 52.5L33.4425 46.25H41.5575L43.3425 52.5H31.6575ZM65 40C65 42.0711 63.3211 43.75 61.25 43.75H13.75C11.6789 43.75 10 42.0711 10 40V37.5H65V40ZM65 35H10V6.25C10 4.17891 11.6789 2.5 13.75 2.5H61.25C63.3211 2.5 65 4.17891 65 6.25V35Z" fill="#B86B77"/>
<path d="M47.5 57.5H12.5C11.8097 57.5 11.25 58.0597 11.25 58.75V73.75C11.25 74.4403 11.8097 75 12.5 75H47.5C48.1903 75 48.75 74.4403 48.75 73.75V58.75C48.75 58.0597 48.1903 57.5 47.5 57.5ZM46.25 72.5H13.75V60H46.25V72.5Z" fill="#B86B77"/>
<path d="M18.75 67.5H16.25V70H18.75V67.5Z" fill="#B86B77"/>
<path d="M18.75 62.5H16.25V65H18.75V62.5Z" fill="#B86B77"/>
<path d="M23.75 62.5H21.25V65H23.75V62.5Z" fill="#B86B77"/>
<path d="M28.75 62.5H26.25V65H28.75V62.5Z" fill="#B86B77"/>
<path d="M38.75 62.5H36.25V65H38.75V62.5Z" fill="#B86B77"/>
<path d="M33.75 62.5H31.25V65H33.75V62.5Z" fill="#B86B77"/>
<path d="M43.75 67.5H41.25V70H43.75V67.5Z" fill="#B86B77"/>
<path d="M43.75 62.5H41.25V65H43.75V62.5Z" fill="#B86B77"/>
<path d="M38.75 67.5H21.25V70H38.75V67.5Z" fill="#B86B77"/>
<path d="M57.5 57.5C54.0483 57.5 51.25 60.2983 51.25 63.75V68.75C51.25 72.2017 54.0483 75 57.5 75C60.9517 75 63.75 72.2017 63.75 68.75V63.75C63.75 60.2983 60.9517 57.5 57.5 57.5ZM61.25 68.75C61.25 70.8211 59.5711 72.5 57.5 72.5C55.4289 72.5 53.75 70.8211 53.75 68.75V63.75C53.75 61.6789 55.4289 60 57.5 60C59.5711 60 61.25 61.6789 61.25 63.75V68.75Z" fill="#B86B77"/>
<path d="M58.75 62.5H56.25V65H58.75V62.5Z" fill="#B86B77"/>
<path d="M38.7927 10.9325L33.788 28.4225L36.1904 29.11L41.1951 11.62L38.7927 10.9325Z" fill="#B86B77"/>
<path d="M30.8 14.71L29.2 12.79L21.7 19.04C21.1698 19.4822 21.0984 20.2703 21.5406 20.8006C21.5889 20.8585 21.6422 20.9119 21.7 20.96L29.2 27.21L30.8 25.29L24.4525 20L30.8 14.71Z" fill="#B86B77"/>
<path d="M53.4594 19.1994C53.4111 19.1416 53.3578 19.0881 53.3 19.04L45.8 12.79L44.2 14.71L50.5475 20L44.2 25.29L45.8 27.21L53.3 20.96C53.8302 20.5178 53.9016 19.7297 53.4594 19.1994Z" fill="#B86B77"/>
</g>
<defs>
<clipPath id="clip0">
<rect width="75" height="75" fill="white"/>
</clipPath>
</defs>
</svg>
