<svg xmlns="http://www.w3.org/2000/svg" viewBox="0 0 1200 931.08"><ellipse opacity=".1" fill="#DEBDC2" cx="631.221" cy="817.202" rx="149.629" ry="16.559"/><ellipse opacity=".1" fill="#DEBDC2" cx="482.931" cy="901.481" rx="39.625" ry="4.389"/><ellipse opacity=".1" fill="#DEBDC2" cx="867.947" cy="926.691" rx="39.625" ry="4.389"/><ellipse opacity=".1" fill="#DEBDC2" cx="1122.333" cy="830.437" rx="39.625" ry="4.388"/><ellipse opacity=".1" fill="#DEBDC2" cx="163.735" cy="874.335" rx="149.629" ry="34.216"/><path opacity=".1" fill="#DEBDC2" d="M68.844 351.081h105.341v143.613H76.544a298.487 298.487 0 0 1-.779 4.436h98.419v115.79a3.289 3.289 0 0 1-.481-.184c-2.796-1.146-5.558-2.291-8.285-3.494l-1.776-.814a164.713 164.713 0 0 1-8.285-4.159 101.926 101.926 0 0 1-2.876-1.57 172.842 172.842 0 0 1-41.446-32.279c-.356-.344-.688-.71-1.02-1.054a191.08 191.08 0 0 1-4.928-5.558l-1.776-2.12c-1.891-2.291-3.712-4.686-5.477-7.093-.264-.355-.516-.722-.779-1.066a152.98 152.98 0 0 1-17.853-32.279 19.95 19.95 0 0 1-.413-1.054 137.756 137.756 0 0 1-3.862-11.082c-.47-1.57-.939-3.151-1.33-4.743-.148-.47-.263-.951-.389-1.41-5.844-22.998-6.508-46.901-6.508-70.678v-8.307c0-9.618.091-19.263.274-28.934.057-2.499.104-4.996.161-7.506.148-6.371.344-12.753.619-19.125.068-1.765.148-3.541.24-5.294 0-1.02.091-2.04.161-3.048.22-3.667.437-7.321.689-10.988zm105.341-159.886h-57.787a437.528 437.528 0 0 1 30.744-42.317c8.583-10.542 17.612-20.833 27.042-30.721v73.038zm0 4.435v151.016H69.131c0-.436.069-.894.115-1.329.092-1.146.183-2.373.287-3.564.103-1.386.241-2.784.366-4.194.126-1.41.275-3.025.436-4.526.161-1.501.31-3.025.481-4.583.172-1.559.333-3.014.516-4.503.183-1.489.354-3.014.55-4.503.16-1.249.32-2.486.492-3.736.237-1.757.489-3.51.756-5.26 0-.263.08-.526.115-.779a358.402 358.402 0 0 1 7.735-37.906 280.012 280.012 0 0 1 13.028-38.421 287.517 287.517 0 0 1 19.595-37.757l60.582.045zm25.164 155.451v143.613h225.005V351.081H199.349zm0 148.048v123.388c1.284.265 2.555.527 3.828.745 1.718.332 3.437.63 5.167.895.333 0 .676.103 1.02.137.688.115 1.387.206 2.074.298 1.73.241 3.438.436 5.214.596l2.475.218 2.005.148a79.4 79.4 0 0 0 3.243.185c.665 0 1.33 0 2.005.08h7.357c.894 0 1.788 0 2.67-.08.619 0 1.237 0 1.856-.081.176.012.352.012.528 0 .516 0 1.031 0 1.535-.068h.355l3.438-.274c1.146-.104 2.292-.229 3.438-.356l2.36-.286a206.655 206.655 0 0 0 28.498-6.062c20.993-5.855 41.48-14.049 62.508-20.042 27.283-7.803 57.26-11.573 83.432-2.188v-97.25H199.349zm225.005-307.934V.005a288.964 288.964 0 0 0-73.107 8.572c-56.984 14.312-108.148 45.366-151.921 85.024v97.594h11.287v4.435h-11.287v151.016h225.028V195.63H257.056v-4.435h167.298zm289.094-64.581c-14.094-.504-28.109-4.961-40.793-11.86-24.235-13.178-43.636-33.54-65.235-50.716C562.49 28.252 506.731 6.651 449.563 1.3v189.895h321.202l.791-.848-58.108-63.733zm29.266-5.237l31.03 34.056v-42.971c-10.415 1.283-19.514 4.377-31.007 8.915h-.023zm31.03 531.688V499.129h-66.14a46.167 46.167 0 0 0-.562-1.983c.195.665.367 1.33.551 1.983h-258.03v111.333c2.452 1.822 4.87 3.736 7.265 5.673 2.59 2.108 5.145 4.262 7.712 6.417l2.578 2.131c1.237 1.03 2.486 2.039 3.735 3.06a511.718 511.718 0 0 0 7.551 5.98c1.26.998 2.544 1.972 3.816 2.945a521.511 521.511 0 0 0 63.986 41.849 541.2 541.2 0 0 0 15.148 8.102 618.21 618.21 0 0 0 10.233 5.133 550.517 550.517 0 0 0 15.561 7.299 571.826 571.826 0 0 0 151.6 44.151 566.302 566.302 0 0 0 34.995 4.045v-94.182h1.032-1.031zM449.563 195.63v151.016h324.204V195.63H449.563zm0 155.451v143.613h324.204V351.081H449.563zm349.369-238.825v48.035l39.602-43.463a427.507 427.507 0 0 0-39.602-4.572zm0 238.825v143.613h315.334V351.081H798.932zm314.222 313.398l1.146-165.351H798.932V748.93a565.9 565.9 0 0 0 60.937-.733h.356a525.469 525.469 0 0 0 28.933-2.658h.218a532.573 532.573 0 0 0 148.656-39.672m137.058-331.09a333.82 333.82 0 0 0-3.679-8.319c-2.291-5.145-4.824-10.233-7.38-15.275h-24.602v143.51h62.198c-.046-40.621-10.336-82.205-26.526-120.019l-.011.103zm-35.66 124.454v142.135c17.521-16.787 32.325-36.003 42.982-57.97 12.822-26.458 18.666-55.094 19.17-84.268l-62.152.103zm0-189.895v37.413h22.299a405.305 405.305 0 0 0-22.287-37.516l-.012.103zM925.585 140.433a360.67 360.67 0 0 0-4.938-1.867 448.045 448.045 0 0 0-53.26-16.042l-60.606 66.461-1.146 1.271.78.848h215.654a461.22 461.22 0 0 0-96.484-50.671zm102.831 55.197H803.354l-4.423 4.056v146.959h315.312V275.43a448.91 448.91 0 0 0-85.827-79.8z"/><path opacity=".1" fill="#DEBDC2" d="M174.185 271.808v74.838H69.131c0-.436.069-.894.115-1.329.092-1.146.183-2.372.287-3.564.103-1.386.241-2.784.366-4.194.126-1.41.275-3.025.436-4.526.161-1.501.31-3.025.481-4.583.172-1.559.333-3.014.516-4.503.183-1.489.354-3.014.55-4.503.16-1.249.32-2.486.492-3.736.237-1.757.489-3.51.756-5.26 0-.263.08-.526.115-.779a358.402 358.402 0 0 1 7.735-37.906l93.205.045zM68.844 351.081h105.341v143.613H76.544a298.487 298.487 0 0 1-.779 4.436h98.419v115.79a3.289 3.289 0 0 1-.481-.184c-2.796-1.146-5.558-2.291-8.285-3.494l-1.776-.814a164.713 164.713 0 0 1-8.285-4.159 101.926 101.926 0 0 1-2.876-1.57 172.842 172.842 0 0 1-41.446-32.279c-.356-.344-.688-.71-1.02-1.054a191.08 191.08 0 0 1-4.928-5.558l-1.776-2.12c-1.891-2.291-3.712-4.686-5.477-7.093-.264-.355-.516-.722-.779-1.066a152.98 152.98 0 0 1-17.853-32.279 19.95 19.95 0 0 1-.413-1.054 137.756 137.756 0 0 1-3.862-11.082c-.47-1.57-.939-3.151-1.33-4.743-.148-.47-.263-.951-.389-1.41-5.844-22.998-6.508-46.901-6.508-70.678v-8.307c0-9.618.091-19.263.274-28.934.057-2.499.104-4.996.161-7.506.148-6.371.344-12.753.619-19.125.068-1.765.148-3.541.24-5.294 0-1.02.091-2.04.161-3.048.22-3.667.437-7.321.689-10.988zm209.719-133.828v129.393h-79.215V217.253h11.287v-43.807h46.374v43.807h21.554zM199.36 351.081h79.215v143.613H199.36V351.081zm-.011 148.048h79.215V618.54a204.636 204.636 0 0 1-28.498 6.051c-.791.114-1.57.206-2.361.299-1.146.125-2.291.252-3.437.354l-3.438.275h-.367c-.492 0-1.008.058-1.524.068a3.862 3.862 0 0 1-.527 0c-.63 0-1.249.068-1.868.08-.882 0-1.765.057-2.669.08h-7.357c-.527 0-1.329 0-2.005-.08-1.077 0-2.154-.103-3.244-.183l-1.993-.149-2.487-.219a140.01 140.01 0 0 1-5.214-.596c-.676-.091-1.386-.183-2.074-.297-.344 0-.688-.092-1.009-.138-1.73-.264-3.437-.562-5.168-.895-1.283-.217-2.555-.48-3.838-.744l-.137-123.317zm509.103-297.15h65.327v144.667h-65.327V201.979zm65.327 149.102v143.613H449.552v-61.935h172.696v36.531h86.204V351.081h65.327zm1.032 302.031h-1.031v94.203a565.48 565.48 0 0 1-34.996-4.046 571.556 571.556 0 0 1-151.634-44.207 552 552 0 0 1-40.942-20.535 522.275 522.275 0 0 1-63.986-41.848 565.407 565.407 0 0 1-15.092-11.975c-3.438-2.841-6.875-5.729-10.313-8.57a294.7 294.7 0 0 0-7.265-5.729V499.129h258.041c-.183-.654-.354-1.318-.539-1.983.195.665.379 1.33.551 1.983h66.175v153.914l1.031.069zm169.314-461.917h-42.546v-13.28h19.067v-39.35a343.52 343.52 0 0 1 4.938 1.868v37.481h18.54v13.281zm102.568 155.451H837.719h.069-38.856V201.979h10.988v106.934h50.189v-63.287h41.47V195.63h42.546v49.995h41.459v63.287h61.11l-.001 37.734zm-247.761 4.435v143.613h247.762V351.081H798.932zm314.991 312.688l.343-113.671h-67.606V499.13H798.932v249.802c20.311.85 40.653.605 60.937-.733h.356a525.469 525.469 0 0 0 28.933-2.658h.218a532.573 532.573 0 0 0 148.656-39.672m105.775-206.74h57.799c-.504 29.174-6.36 57.809-19.182 84.268-10.646 21.967-25.462 41.183-42.972 57.97V550.04h4.354v-50.911zm57.833-4.436h-57.833V374.674h31.295c16.19 37.814 26.48 79.398 26.538 120.019z"/><path opacity=".1" fill="#DEBDC2" d="M738.783 242.188h34.996v45.354h-34.996v-45.354zm0 94.019h34.996v10.439h-34.996v-10.439zm0 14.874h34.996v30.469h-34.996v-30.469zm0 79.134h34.996v45.354h-34.996v-45.354zm0 94.019h34.996v45.354h-34.996v-45.354zm34.996 128.809l1.031.069h-1.031v10.53h-34.996v-45.399h34.996v34.8zm0 59.196v35.029a565.477 565.477 0 0 1-34.996-4.045v-30.938l34.996-.046zm-324.227-220.88h149.973v3.334H449.552v-3.334zm0 7.77h149.973v12.765H449.552v-12.765zm0 54.623h149.973v20.534H449.552v-20.534zm149.972 62.394v20.534H482.221a528.034 528.034 0 0 1-15.092-11.986c-3.438-2.83-6.875-5.729-10.313-8.548h142.708zm0 62.381v20.546h-12.375a549.024 549.024 0 0 1-40.942-20.546h53.317zm260.357-313.525h29.518v29.519h-29.518v-29.519zM220.627 227.44h29.518v29.518h-29.518V227.44zm0 68.569h29.518v29.518h-29.518v-29.518zm0 68.582h29.518v29.518h-29.518v-29.518zm0 68.58h29.518v29.518h-29.518v-29.518zm0 68.581h29.518v29.518h-29.518v-29.518zm0 68.581h29.518v29.518h-29.518v-29.518zm751.962-205.331h29.519v29.519h-29.519v-29.519zm-112.708 72.822h29.518v29.518h-29.518v-29.518zm112.708 0h29.519v29.518h-29.519v-29.518zm-112.708 72.821h29.518v29.518h-29.518v-29.518zm112.708 0h29.519v29.518h-29.519v-29.518zm-112.708 72.82h29.518v29.517h-29.518v-29.517zm112.708 0h29.519v29.517h-29.519v-29.517zm-112.708 72.82h29.518v29.519h-29.518v-29.519zm112.708 0h29.519v29.519h-29.519v-29.519zm-112.708 91.856v-19.034h29.518v16.329l-29.518 2.705zM73.153 309.691v16.89h101.032v-16.89H73.153zm10.061 15.836h-8.285v-14.69h8.285v14.69zm10.061 0H84.99v-14.69h8.285v14.69zm10.038 0h-8.285v-14.69h8.285v14.69zm10.061 0h-8.285v-14.69h8.285v14.69zm10.049 0h-8.285v-14.69h8.285v14.69zm10.06 0h-8.285v-14.69h8.285v14.69zm10.061 0h-8.285v-14.69h8.285v14.69zm10.05 0h-8.285v-14.69h8.285v14.69zm10.05 0h-8.285v-14.69h8.285v14.69zm10.048 0h-8.308v-14.69h8.285l.023 14.69zM73.153 358.884v16.89h101.032v-16.89H73.153zm10.061 15.825h-8.285V359.95h8.285v14.759zm10.061 0H84.99V359.95h8.285v14.759zm10.038 0h-8.285V359.95h8.285v14.759zm10.061 0h-8.285V359.95h8.285v14.759zm10.049 0h-8.285V359.95h8.285v14.759zm10.06 0h-8.285V359.95h8.285v14.759zm10.061 0h-8.285V359.95h8.285v14.759zm10.05 0h-8.285V359.95h8.285v14.759zm10.05 0h-8.285V359.95h8.285v14.759zm10.048 0h-8.308V359.95h8.285l.023 14.759zM73.153 408.054v16.879h101.032v-16.879H73.153zm10.061 15.813h-8.285v-14.759h8.285v14.759zm10.061 0H84.99v-14.759h8.285v14.759zm10.038 0h-8.285v-14.759h8.285v14.759zm10.061 0h-8.285v-14.759h8.285v14.759zm10.049 0h-8.285v-14.759h8.285v14.759zm10.06 0h-8.285v-14.759h8.285v14.759zm10.061 0h-8.285v-14.759h8.285v14.759zm10.05 0h-8.285v-14.759h8.285v14.759zm10.05 0h-8.285v-14.759h8.285v14.759zm10.048 0h-8.308v-14.759h8.285l.023 14.759zM73.153 457.212v16.878h101.032v-16.878H73.153zm10.061 15.825h-8.285v-14.771h8.285v14.771zm10.061 0H84.99v-14.771h8.285v14.771zm10.038 0h-8.285v-14.771h8.285v14.771zm10.061 0h-8.285v-14.771h8.285v14.771zm10.049 0h-8.285v-14.771h8.285v14.771zm10.06 0h-8.285v-14.771h8.285v14.771zm10.061 0h-8.285v-14.771h8.285v14.771zm10.05 0h-8.285v-14.771h8.285v14.771zm10.05 0h-8.285v-14.771h8.285v14.771zm10.048 0h-8.308v-14.771h8.285l.023 14.771zM73.588 506.371a97.66 97.66 0 0 0 1.341 4.744v-3.678h8.285v14.759h-4.423c.126.344.263.71.401 1.054h94.993v-16.879H73.588zm19.687 15.824H84.99v-14.759h8.285v14.759zm10.038 0h-8.285v-14.759h8.285v14.759zm10.061 0h-8.285v-14.759h8.285v14.759zm10.049 0h-8.285v-14.759h8.285v14.759zm10.06 0h-8.285v-14.759h8.285v14.759zm10.061 0h-8.285v-14.759h8.285v14.759zm10.05 0h-8.285v-14.759h8.285v14.759zm10.05 0h-8.285v-14.759h8.285v14.759zm10.048 0h-8.308v-14.759h8.285l.023 14.759zm-76.648 33.346c.264.332.516.699.779 1.054h5.489v7.093l1.776 2.12v-9.167h8.285v14.771h-3.357c.332.343.653.71 1.02 1.054h63.149v-16.924H97.044zm26.356 15.824h-8.285v-14.771h8.285v14.771zm10.06 0h-8.284v-14.771h8.284v14.771zm10.061 0h-8.284v-14.771h8.284v14.771zm10.05 0h-8.285v-14.771h8.285v14.771zm10.049 0h-8.285v-14.771h8.285v14.771zm10.05 0h-8.285v-14.771h8.285v14.771zm-21.199 33.333a89.208 89.208 0 0 0 2.888 1.57v-.517h8.285v4.676l1.764.814v-5.49h8.285v8.984c.16.073.325.135.493.184v-10.222h-21.715zm621.297 48.345h1.031-1.031zm-66.725-155.839c.195.665.367 1.33.551 1.982-.207-.711-.345-1.375-.551-2.041v.059zM210.636 191.195v4.435h46.42v-4.435h-46.42zm563.132 461.79h1.031-1.031zm-66.725-155.839c.195.665.367 1.33.551 1.983-.207-.654-.345-1.318-.551-1.983zm66.725 155.897h1.031-1.031zm-66.725-155.839c.195.665.367 1.33.551 1.982-.207-.711-.345-1.375-.551-2.041v.059z"/><path fill="#EEC5CD" d="M8.938 454.45l-7.838.413 7.838 50.327 19.113 53.088 5.638-13.899 737.65-56.515-.138-22.551-111.117-40.702L8.938 454.45z"/><path fill="#D48A9B" d="M671.085 586.88l-8.009-3.678-39.843-18.322-.55-8.25 37.905 16.902 7.746 3.449 2.751 9.899zm-551.168 26.939l-2.2 12.123-5.81-7.849-8.548-11.551-6.004-8.112 3.3-6.601 4.939 5.638 2.808 3.208 4.835 5.523.584.665 6.096 6.956z"/><path fill="#D48A9B" d="M648.809 717.625c-.915 5.386-3.632 4.687-6.106 2.682a14.892 14.892 0 0 1-5.214-9.638l-21.36-157.856-.778-5.729-.917-6.818-.779-5.649-1.546-11.458-.975-7.208 10.99-3.838 1.362 10.313 3.358 25.209.744 5.626.802 5.993.149 1.146.779 5.729.229 1.765 19.273 144.713a17.59 17.59 0 0 1-.011 5.02z"/><path opacity=".1" d="M671.085 586.88l-8.009-3.678-2.052-8.01-.436-1.661 7.746 3.449 2.751 9.9z"/><path fill="#D48A9B" d="M726.546 769.671c-.551 4.756-3.116 5.329-5.729 4.584a10.953 10.953 0 0 1-7.368-7.907l-46.626-181.439-2.509-9.717-14.003-54.555-1.788-6.875 9.362-11.012 4.445 17.131 63.804 244.966c.434 1.569.574 3.205.412 4.824z"/><path opacity=".1" d="M629.318 566.014l-4.079-4.068-1.892-1.902-7.22-7.23-.767-5.718-.929-6.818 9.109 8.927 4.046 3.976.802 5.993.149 1.123.781 5.717z"/><path fill="#D48A9B" d="M653.473 573.68h-11.55l-.379-.378-13.005-13.006-1.892-1.902-11.286-11.298-22.666-22.666-4.664-4.663 7.689-2.739 6.875 6.749 11.058 10.852 13.189 12.925 20.431 20.03 6.2 6.096zm-538.507-28.063l-2.544 10.438-9.408 38.479-2.131 8.687-39.67 162.291a15.821 15.821 0 0 1-3.163 6.451c-3.816 4.584-6.211 2.406-7.563-.367a11.949 11.949 0 0 1-.745-8.101l50.911-206.683 2.75-11.195h11.563zm58.864-.539l-7.333 7.391-29.117 29.38-2.017 2.04-4.045 4.079-11.253 11.333-1.994 2.017-4 4.021-.836.86-2.12 2.131-4.95-5.5 2.234-2.155 7.746-7.539 3.964-3.851 1.982-1.914 11.333-11.035 4.01-3.896 2.005-1.948 17.91-17.417 8.228-7.999h8.253v.002z"/><path opacity=".1" d="M139.442 570.494l-.355 1.947-1.707 9.408-2.017 2.04-15.298 15.412 1.696-10.015.332-1.914 15.344-14.931 2.005-1.947zm-25.622 36.37l6.096 6.955-2.2 12.123-5.81-7.849 1.375-8.067.539-3.162z"/><path opacity=".1" d="M133.427 576.338l-1.364 7.551-.744 4.079-11.253 11.333-1.994 2.017-4 4.021.699-4.021 1.375-8.182 3.964-3.851 1.982-1.914 11.335-11.033z"/><path fill="#D48A9B" d="M143.018 541.778l-2.292 12.388-3.312 18.276-2.074 11.46-45.697 251.061c-4.183 10.313-7.23 8.021-9.041 4.32a16.224 16.224 0 0 1-1.307-9.866l35.282-207.68 1.982-11.699 1.478-8.709 2.051-12.031 5.729-34.148 1.146-6.761 16.055-6.611z"/><path fill="#EEC5CD" d="M1.1 454.863l27.501 54.452 742.6-44.002-111.117-40.702L1.1 454.863z"/><path fill="#D48A9B" d="M1.1 454.863L0 499.415l28.051 58.864.55-48.963L1.1 454.863z"/><path opacity=".1" d="M103.416 545.628h11.55l-2.544 10.404-11.769.779 2.763-11.183zm23.651 2.751l15.951-6.601-2.258 12.398-14.851.962 1.158-6.759zm38.513-3.301h8.25l-7.333 7.391-9.144.607 8.227-7.998zm430.141-28.051l6.875 6.749-9.9.653-4.664-4.663 7.689-2.739zm26.4-4.95l1.376 10.325-11.391.757-.974-7.243 10.989-3.839zm40.221 7.769l-12.031.791-1.788-6.91 9.362-11.012 4.457 17.131z"/><path fill="#D48A9B" d="M771.201 465.313l1.1 44.002-744.25 48.963.55-48.963 742.6-44.002z"/><path opacity=".1" d="M39.602 518.666l171.08-7.7.55 30.251-170.53 7.15-1.1-29.701z"/><path fill="#FFF" d="M37.952 517.016l171.08-7.7.55 30.251-170.53 7.162-1.1-29.713z"/><path opacity=".1" d="M222.232 509.865l386.69-22.551-.551 28.601-387.239 24.751 1.1-30.801z"/><path fill="#FFF" d="M220.582 508.215l386.7-22.55-.55 28.601-387.25 24.75 1.1-30.801z"/><path opacity=".1" d="M615.532 486.214l147.418-9.35 1.1 28.051-146.866 9.9-1.652-28.601z"/><path fill="#FFF" d="M613.883 484.564l147.418-9.351 1.1 28.051-146.868 9.9-1.65-28.6z"/><path opacity=".1" d="M114.938 530.499l20.904-.551.043 1.65-20.904.55-.043-1.649z"/><path fill="#D48A9B" d="M114.939 528.849l20.905-.55.043 1.649-20.904.55-.044-1.649z"/><path opacity=".1" d="M519.792 506.843l20.906-.55.043 1.65-20.905.55-.044-1.65z"/><path fill="#D48A9B" d="M519.783 505.195l20.905-.55.044 1.648-20.906.55-.043-1.648z"/><path opacity=".1" d="M292.612 520.045l20.906-.551.043 1.65-20.906.55-.043-1.649z"/><path fill="#D48A9B" d="M292.614 518.395l20.905-.55.044 1.649-20.906.55-.043-1.649z"/><path opacity=".1" d="M682.058 495.846l20.905-.551.043 1.649-20.904.55-.044-1.648z"/><path fill="#D48A9B" d="M682.06 494.196l20.906-.551.042 1.649-20.903.551-.045-1.649zm262.971 209.288l-19.813-1.088-1.329-56.858-.321-13.556 20.901-3.84.126 17.453.436 57.889z"/><path fill="#D48A9B" d="M929.619 693.597l-101.766 63.252-2.2 19.251 11.001.55v-13.751l66.563-37.4-80.315 99.564v15.4h13.201l-1.101-17.05 92.966-105.616 11.551 1.1 97.916 111.116 2.2 18.701 13.2.55-2.201-19.251-77.563-96.815 51.713 35.752 1.1 15.4 10.45.55-1.1-18.7-98.465-75.902-7.15 3.299z"/><path fill="#DEBDC2" d="M801.772 585.379a181.462 181.462 0 0 0 24.063-39.041c7.002-15.492 14.68-33.379 15.264-38.673 1.146-9.9 29.151-29.701 59.953-30.801 20.087-.722 51.381-16.397 70.746-27.226a144.052 144.052 0 0 1 59.356-18.334c22.654-1.707 43.956 2.739 33.23 29.026L920.269 634.732S797.43 656.378 789.89 621.577a28.081 28.081 0 0 0-1.753-5.11c-1.478-3.289-1.857-11.871 13.635-31.088z"/><path opacity=".2" fill="#FFF" d="M812.59 588.839a186.833 186.833 0 0 0 24.213-39.418c6.543-14.484 13.464-30.721 14.014-35.637 1.054-9.454 27.891-28.372 57.374-29.426 19.206-.688 49.146-15.652 67.676-26a137.88 137.88 0 0 1 56.802-17.498c21.68-1.627 42.065 2.624 31.832 27.73l-114.256 167.3s-140.943 19.996-148.392-13.086a33.826 33.826 0 0 0-1.766-5.134c-1.305-3.243-1.488-11.275 12.503-28.831z"/><path opacity=".1" d="M944.584 645.596c-6.623 0-13.602 0-20.717-.069l-.31-13.544 20.889-3.851.138 17.464zM1024.784 765.649l-51.713-35.752 5.936 7.402 45.777 31.649 1.1 15.4 10.45.55-.194-3.312-10.256-.539-1.1-15.398zm-188.13-6.05v3.3l61.693-34.662 4.87-6.039-66.563 37.401zm-13.752 77.564v3.3h13.201l-.206-3.3h-12.995zm13.752-63.813l-10.622-.527-.379 3.277 11 .55.001-3.3zm202.982 72.064l-2.2-18.701-97.916-111.116-11.551-1.1-92.966 105.615.207 3.071 92.759-105.387 11.551 1.1 97.916 111.116 2.2 18.701 13.2.55-.379-3.323-12.821-.526z"/><linearGradient id="a" gradientUnits="userSpaceOnUse" x1="1414.947" y1="886.01" x2="1414.947" y2="1138.213" gradientTransform="rotate(180 2035.126 1414.527) scale(2.2689)"><stop offset="0" stop-color="gray" stop-opacity=".25"/><stop offset=".54" stop-color="gray" stop-opacity=".12"/><stop offset="1" stop-color="gray" stop-opacity=".1"/></linearGradient><path fill="url(#a)" d="M573.594 722.209c18.047 14.393 29.346 1.065 29.346 1.065s30.435-21.691 31.11-24.74a28.895 28.895 0 0 1 1.742-5.374s5.007.859 5.007-1.501 5.214-3.22 8.251-5.157c3.036-1.937 22.185-18.688 22.185-18.688s.653-3.644 9.431-6.439c6.176-1.96 19.318-14.231 26.584-21.349.447-2.876 1.925-11.631 3.553-14.312a3.943 3.943 0 0 1 2.854-1.249l.721-2.658a180.9 180.9 0 0 0 4.688-24.66c1.948-17.188 16.523-22.551 20.213-22.551s33.048-12.455 33.048-12.455l47.611-19.332s29.346-9.224 28.257-15.469a5.622 5.622 0 0 1 .069-1.995c.596-2.933 3.15-6.348 5.729-9.166a64.476 64.476 0 0 1 5.729-5.592l15.813-9.798 1.214-.756c-5.339-8.525-17.027-19.732-17.027-19.732s3.438-6.44 7.391-6.44c2.613 0 17.188-4.583 26.607-7.632-.975-10.428-2.899-42.203 9.052-48.643l14.313-7.734s-.504 1.146-1.249 2.864l2.119-1.146s-.252.538-.641 1.455c.424-.068.87-.115 1.329-.148 1.295-4.584 2.073-8.274 1.695-9.465-.951-2.991-1.146-23.422 7.471-33.941l-6.875-19.972a3.92 3.92 0 0 1 2.463-4.965l.023-.008 17.808-5.981a3.842 3.842 0 0 1 1.719-.172 3.986 3.986 0 0 1 4.285 2.624l5.054 14.702a60.53 60.53 0 0 1 6.451-1.146c1.502-2.704 3.312-5.317 3.037-8.319-.303-1.74-.92-3.41-1.822-4.928a56.346 56.346 0 0 1-4.835-14.22 6.248 6.248 0 0 1-.058-3.014c.744-2.417 3.907-3.254 5.26-5.409 1.146-1.764.768-4.045.217-6.038-.87-3.186-2.199-6.234-2.922-9.454-.722-3.219-.779-6.726.803-9.625a15.25 15.25 0 0 1 5.729-5.374c.606-2.842 2.658-5.523 2.005-8.342-.39-1.695-1.73-3.094-1.982-4.813-.436-3.105 2.67-5.466 5.396-7.07l24.145-14.266c2.154-1.272 4.389-2.566 6.692-3.633 4.354-2.291 8.972-3.919 13.75-3.322 6.131.768 11.195 5.145 14.977 9.968 3.782 4.825 6.749 10.313 10.99 14.737 7.744 8.124 19.031 12.031 27.5 19.48a18.976 18.976 0 0 1 5.466 7.207c3.529 9.362-5.168 19.021-5.11 29.014 0 8.754 6.761 16.042 13.751 21.439 2.968 2.292 6.302 4.824 6.874 8.502.46 2.841-.858 5.614-1.673 8.365a27.506 27.506 0 0 0 .837 17.291c5.489 3.621 9.408 6.074 9.408 6.074s22.608 18.907 35.225 23.204c.496.116.946.384 1.283.767 3.438 2.121 13.029 8.113 14.805 11.253 2.178 3.873 16.959 18.471 7.39 23.628a53.32 53.32 0 0 1-17.829 6.017s-22.173 6.875-30.87 11.172a95.069 95.069 0 0 1-16.42 5.729 33.215 33.215 0 0 0 6.6 16.73h.24a27.442 27.442 0 0 0 3.656 3.976l-2.406.378.16.149c-6.302 1.008-12.788 2.004-18.999.584s-12.157-5.89-13.292-12.089c-1.215-6.68 2.956-14.69-1.581-19.766a9.875 9.875 0 0 0-5.73-2.922c-3.013 3.977-25.151 32.154-45.238 25.977 4.584 12.216 12.73 33.517 14.277 34.125 2.178.86-22.173 8.594-22.173 8.594s-4.79-.779-11.653-1.432c0 .825.092 1.684.149 2.589.469 8.434.779 19.767-.677 22.918a16.232 16.232 0 0 0-.871 2.429 42.317 42.317 0 0 1-13.107 21.084l-2.121 1.776a28.554 28.554 0 0 0-6.875 9.018 35.19 35.19 0 0 1-20.626 17.83 45.62 45.62 0 0 1-21.45 1.283s-48.884 4.732-75.835 6.876c-26.951 2.142-56.309 14.609-56.309 14.609s-13.567 9.591-23.182 21.989a93.73 93.73 0 0 0-2.085 2.842l4.183 7.38s-19.881 14.495-33.23 25.335v1.948c.653 14.392-18.482 34.583-18.482 34.583s-5.868 8.158-8.916 12.248c-3.048 4.092 5.226 6.658 5.226 6.658s-13.751 3.861-8.262 18.254c5.488 14.393 1.513 23.846 1.513 23.846l-8.021 38.444h-16.822l3.265-26.63c-5.866-.436-21.519 23.616-21.519 23.616s-40.874-6.222-48.265-8.376c-7.392-2.154-6.085-15.894 8.021-12.88a24.303 24.303 0 0 0 22.607-6.657s10.003-11.608 15.652-41.252a215.442 215.442 0 0 1 7.277-25.702c-7.758 11.779-12.055 29.06-13.751 30-2.395 1.283-32.383 35.224-32.383 35.224l-11.825-11.608 20.306-23.615s-18.483.205-26.093 5.361c-7.608 5.157-17.646 2.579-17.646 2.579s-23.044-18.254-28.647-25.129c-5.607-6.875-10.27-25.976 7.778-11.538z"/><path fill="#575989" d="M911.525 415.8s9.844-3.002 9.419 2.131c-.424 5.134 5.134 9.855 5.134 9.855l-8.995 23.559-20.122-7.288 6.371-20.122 8.193-8.135z"/><path fill="#FFD7E3" d="M911.525 415.8s9.844-3.002 9.419 2.131c-.424 5.134 5.134 9.855 5.134 9.855l-8.995 23.559-20.122-7.288 6.371-20.122 8.193-8.135z"/><path fill="#3F2B3B" d="M963.17 289.26c-3.048 1.742-6.268 3.632-7.93 6.727-1.558 2.887-1.501 6.405-.802 9.602.699 3.197 2.028 6.257 2.888 9.419.538 1.994.871 4.263-.217 6.027-1.329 2.154-4.446 2.979-5.191 5.397a6.363 6.363 0 0 0 .068 3.002 56.936 56.936 0 0 0 4.755 14.174 14.284 14.284 0 0 1 1.8 4.916c.436 4.79-4.412 8.594-4.825 13.373-.228 2.578.872 5.076 1.948 7.425 1.146 2.613 2.476 5.34 4.825 6.967 2.91 2.005 6.875 1.856 10.232.894 3.357-.962 6.577-2.635 10.004-3.438 3.163-.791 6.565-.894 9.441-2.417 4.893-2.59 6.933-8.411 8.366-13.751.962-3.586 1.844-7.379.915-10.978a35.976 35.976 0 0 0-2.944-6.542c-1.295-2.705-2.212-5.627-3.966-8.021-1.753-2.395-4.113-4.206-4.823-6.967-.825-3.197.939-6.394 2.407-9.339a64.774 64.774 0 0 0 3.322-8.021 14.285 14.285 0 0 0 .974-6.932c-.848-4.836-5.844-7.769-10.576-9.064-3.438-.939-7.15-1.364-10.553-2.624-1.524-.562-2.877-1.616-4.504-1.708-2.005-.149-3.929.917-5.614 1.879z"/><path fill="#C77486" d="M712.796 630.366l39.704 5.34h.127s39.612-47.325 40.254-47.531l44.758-15.848 29.988-8.789 4.068-19.48-39.831-1.501-13.063 1.925-46.9 19.286s-28.911 12.421-32.555 12.421c-3.645 0-17.991 5.351-19.916 22.482a179.26 179.26 0 0 1-4.583 24.579c-1.181 4.424-2.051 7.116-2.051 7.116z"/><path opacity=".05" d="M712.796 630.779l39.704 5.339h.127s39.612-47.325 40.254-47.531l44.758-15.848 29.988-8.788 4.068-19.48-39.831-1.501-13.063 1.925-46.9 19.285s-28.911 12.421-32.556 12.421c-3.644 0-17.99 5.351-19.915 22.481a179.303 179.303 0 0 1-4.583 24.58c-1.181 4.425-2.051 7.117-2.051 7.117z"/><path opacity=".1" d="M832.505 543.634l-1.937 3.254s13.752 7.38 12.604 10.222l19.893-8.021-30.56-5.455zm-119.709 86.732l39.704 5.34c2.567-9.167 4.584-15.836 4.584-15.836l-27.41 4.721s-9.477-1.845-14.896-1.341c-1.112 4.424-1.982 7.116-1.982 7.116z"/><path fill="#D4DFEC" d="M729.708 627.158s-16.488-3.209-18.413 0c-1.926 3.208-3.645 15.205-3.645 15.205s-32.349 75.801-37.895 105.354c-5.547 29.552-15.424 41.113-15.424 41.113a23.79 23.79 0 0 1-22.275 6.646c-13.911-3.003-15.194 10.702-7.918 12.845 7.276 2.144 47.542 8.354 47.542 8.354s15.412-23.983 21.199-23.559l-3.208 26.561h16.489l7.918-38.341s3.851-9.419-1.501-23.766c-5.353-14.347 8.136-18.208 8.136-18.208s-8.136-2.566-5.134-6.634c3.002-4.069 8.777-12.204 8.777-12.204s18.85-20.088 18.208-34.479c-.642-14.393 14.553-63.597 14.553-63.597l-27.409 4.71z"/><path opacity=".1" d="M729.708 627.158s-16.488-3.209-18.413 0c-1.926 3.208-3.645 15.205-3.645 15.205s-32.349 75.801-37.895 105.354c-5.547 29.552-15.424 41.113-15.424 41.113a23.79 23.79 0 0 1-22.275 6.646c-13.911-3.003-15.194 10.702-7.918 12.845 7.276 2.144 47.542 8.354 47.542 8.354s15.412-23.983 21.199-23.559l-3.208 26.561h16.489l7.918-38.341s3.851-9.419-1.501-23.766c-5.353-14.347 8.136-18.208 8.136-18.208s-8.136-2.566-5.134-6.634c3.002-4.069 8.777-12.204 8.777-12.204s18.85-20.088 18.208-34.479c-.642-14.393 14.553-63.597 14.553-63.597l-27.409 4.71z"/><path opacity=".1" d="M696.523 744.083s-5.729 38.755-13.281 41.539c-7.551 2.784 13.281-41.539 13.281-41.539zm15.63-30.629c-.642.642-18.414 23.777-25.484 23.982-7.07.208 25.484-23.982 25.484-23.982z"/><path fill="#C77486" d="M740.205 620.729s19.48 50.751 28.269 35.121a62.879 62.879 0 0 1 4.79-7.196c9.464-12.363 22.837-21.933 22.837-21.933s28.91-12.409 55.461-14.552c26.55-2.144 74.688-6.841 74.688-6.841l6.245-5.363c.642-34.686-69.383-50.957-69.383-50.957s-53.536 22.058-73.669 28.475c-20.133 6.417-23.548 16.042-23.548 16.042l-20.087 21.255-5.603 5.949z"/><path opacity=".1" d="M740.205 620.729s19.48 50.751 28.269 35.121a62.879 62.879 0 0 1 4.79-7.196l-3.209-5.729a95.484 95.484 0 0 0-17.188-22.448 42.358 42.358 0 0 0-7.014-5.73l-5.648 5.982z"/><path fill="#D4DFEC" d="M763.122 637s-17.99-22.046-22.917-19.697-27.409 19.057-27.409 19.057-22.54 23.56-31.18 26.355c-8.64 2.795-9.293 6.428-9.293 6.428s-18.793 16.684-21.842 18.62c-3.048 1.937-8.146 2.785-8.146 5.134s-4.916 1.501-4.916 1.501a29.217 29.217 0 0 0-1.719 5.353c-.642 3.001-30.617 24.624-30.617 24.624s-11.138 13.281-28.911-1.02c-17.772-14.301-13.281 4.709-7.712 11.562 5.569 6.853 28.269 25.061 28.269 25.061s9.843 2.567 17.349-2.577c7.505-5.146 25.701-5.398 25.701-5.398l-19.995 23.56 11.642 11.563s29.542-33.838 31.902-35.122c2.36-1.283 9.43-33.229 23.57-39.612 0 0 40.255-15.424 53.317-26.355s35.121-27.203 35.121-27.203L763.122 637z"/><path opacity=".1" d="M629.467 713.454c1.283-.642 29.793 4.503 23.776 7.608-6.014 3.106-23.776-7.608-23.776-7.608zm30.858-13.704c1.284.858 16.489 4.502 12.604 8.57-3.883 4.069-12.604-8.57-12.604-8.57z"/><path fill="#FFF" d="M818.801 544.494s10.313.218 43.464 7.07c33.149 6.852 63.985 53.765 63.985 53.765a44.683 44.683 0 0 0 21.13-1.284 34.806 34.806 0 0 0 20.339-17.783 28.38 28.38 0 0 1 6.75-8.996l2.085-1.765a42.222 42.222 0 0 0 12.903-21.073c.215-.833.504-1.646.859-2.429 1.433-3.117 1.146-14.416.653-22.827a321.935 321.935 0 0 0-.653-9.705L879.818 498.68l-6.279 3.918-15.572 9.774a62.117 62.117 0 0 0-5.672 5.581c-2.521 2.796-5.03 6.21-5.626 9.167a5.387 5.387 0 0 0-.058 2.005c1.089 6.168-27.809 15.369-27.81 15.369z"/><path fill="#C77486" d="M984.759 334.901s10.702 15-2.567 42.397c-13.269 27.398 56.148-15.848 56.148-15.848s-26.126-39.407-22.275-46.683c3.849-7.276-31.306 20.134-31.306 20.134z"/><circle opacity=".1" cx="994.613" cy="317.289" r="33.838"/><circle fill="#C77486" cx="994.613" cy="314.722" r="33.838"/><path opacity=".1" d="M988.609 358.265s-11.127 17.692 22.917 7.85c34.044-9.843-26.768 67.24-26.768 67.24l-23.983-24.842 9.419-43.681 18.415-6.567z"/><path fill="#DCE6F2" d="M988.609 359.973s-11.127 17.704 22.917 7.849-26.768 67.241-26.768 67.241l-23.983-24.831 9.419-43.693 18.415-6.566z"/><path opacity=".1" d="M873.539 502.6a33 33 0 0 1 2.843 4.847c3.849 8.571 13.269 6.429 13.269 6.429 15.424 9.419 56.148 6.875 56.148 6.875s-8.996 14.988 8.136 9.843c10.53-3.151 26.355-2.43 37.058-1.409-.286-5.466-.653-9.706-.653-9.706l-110.497-20.787-6.304 3.908z"/><path fill="#FFD7E3" d="M857.99 482.181s14.553 14.128 18.414 22.7 13.27 6.417 13.27 6.417c15.423 9.431 56.147 6.875 56.147 6.875s-8.994 14.988 8.136 9.843c17.131-5.145 48.391 0 48.391 0s23.995-7.712 21.852-8.56c-2.143-.848-17.188-42.398-17.188-42.398a17.607 17.607 0 0 1-1.146-7.115 14.66 14.66 0 0 1 3.437-9.029 21.279 21.279 0 0 1 8.022-5.73c16.695-7.276 46.247-25.69 46.247-25.69s75.387-11.138 62.966-15.423c-12.422-4.286-34.697-23.124-34.697-23.124s-35.12-22.276-41.974-31.695c-6.852-9.419-20.98-12.421-20.98-12.421l-19.606 14.564-35.647 31.695-1.72-19.228s-3.862-12.857-8.995-16.283-24.259 3.358-25.622 3.827h-.08s-19.697 56.962-18.838 67.24c.218 2.705-.985 6.543-2.865 10.726-1.215 2.681-2.716 5.5-4.297 8.261a210.315 210.315 0 0 1-11.688 17.899s-30.412 10.313-34.262 10.313c-3.851-.001-7.277 6.336-7.277 6.336z"/><path opacity=".1" d="M973.621 396.732l3.861 16.924 37.047-20.133-3.542-30.412-35.647 31.695v-.011l-1.719 1.937z"/><path fill="#FFD7E3" d="M971.913 395.025l3.851 16.913 37.058-20.122-3.541-30.412-35.66 31.696v-.023l-1.708 1.948z"/><path opacity=".1" d="M911.216 449.352c14.037 2.91 76.773 16.042 94.615 22.287a14.726 14.726 0 0 1 3.438-9.041c-17.703-8.124-72.362-31.443-93.756-21.52-1.215 2.681-2.716 5.512-4.297 8.274z"/><path opacity=".1" d="M911.216 445.925c14.037 2.91 76.773 16.042 94.615 22.287a14.726 14.726 0 0 1 3.438-9.041c-17.703-8.125-72.362-31.455-93.756-21.52-1.215 2.671-2.716 5.513-4.297 8.274z"/><path fill="#FFD7E3" d="M911.216 447.632c14.037 2.922 76.773 16.1 94.615 22.288a14.668 14.668 0 0 1 3.438-9.029c-17.749-8.136-72.362-31.455-93.756-21.52-1.215 2.681-2.716 5.534-4.297 8.261z"/><circle fill="#FEFFFF" cx="926.09" cy="455.631" r="4.389"/><circle fill="#FEFFFF" cx="911.216" cy="486.352" r="4.389"/><circle fill="#FEFFFF" cx="960.775" cy="464.408" r="4.389"/><circle fill="#FEFFFF" cx="943.003" cy="496.527" r="4.389"/><circle fill="#FEFFFF" cx="937.296" cy="421.793" r="4.389"/><path opacity=".1" d="M988.186 468.797s17.989 44.22 13.75 50.212-13.75-50.212-13.75-50.212zm-15.207 0c2.532-.63-10.703 11.882-12.204 23.342-1.501 11.459-10.714 21.096-10.714 21.096l9.167-22.494c.001-.001 10.76-21.199 13.751-21.944zm-57.374-4.412c-1.296 1.925-19.079 5.352-21.005 25.267l21.005-25.267zm119.503-31.672c-2.144 1.925-26.354 18.196-34.903 18.518-8.548.32 34.903-18.518 34.903-18.518zm-38.352 8.995s-3.644 5.134-7.287 5.134 7.287-5.134 7.287-5.134zm-150.065 85.368c15.481.516 67.446 2.04 74.998-.137.722-.207-45.927-2.36-56.847-4.503a42.708 42.708 0 0 1-12.525-4.48c-2.52 2.795-5.03 6.21-5.626 9.12zm86.216 10.142s25.726 18.838 14.484 19.055c-11.241.218-14.484-19.055-14.484-19.055z"/><path fill="#3F2B3B" d="M988.758 354.622c-1.043 2.669-.184 3.105-.791 5.5a18.129 18.129 0 0 0-.492 6.772c.31 3.209-1.707 7.024-.104 9.763.253.396.467.813.643 1.25a3.7 3.7 0 0 1-1.605 3.758c-1.076.848-2.371 1.49-3.036 2.773-1.569 3.048 1.444 7.379 0 10.542a6.122 6.122 0 0 1-2.165 2.349 27.746 27.746 0 0 1-6.876 3.621c-1.615-2.533.183-6.245-1.226-8.926a12.033 12.033 0 0 0-2.899-2.945c-2.292-2.177-3.529-5.545-4.125-8.835-.596-3.288-.677-6.668-1.33-9.946-1.064-5.386-3.597-10.428-4.17-15.871a2.278 2.278 0 0 1 .172-1.467 1.81 1.81 0 0 1 1.466-.642c4.984-.423 10.439.906 15.229 0 4.49-.802 7.424-1.834 11.309 2.304z"/><path opacity=".1" d="M936.437 363.089c1.49 6.875 6.452 25.988 17.063 34.502 13.052 10.497 22.918 37.688 22.918 37.688l-2.991 7.07a21.38 21.38 0 0 0 6.416-3.002c3.003-2.142-7.068-44.541-7.068-44.541l-1.708-19.273s-3.851-12.846-8.995-16.272c-4.975-3.311-24.271 3.347-25.635 3.828z"/><path fill="#FFD7E3" d="M937.296 361.371c1.49 6.875 6.452 25.988 17.051 34.502 13.063 10.496 22.918 37.7 22.918 37.7l-3.002 7.058a21.287 21.287 0 0 0 6.429-2.991c3.001-2.143-7.07-44.54-7.07-44.54l-1.708-19.239s-3.862-12.857-8.995-16.283-24.26 3.323-25.623 3.793z"/><path fill="#464A5F" d="M919.855 347.403l21.265-7.227a1.948 1.948 0 0 1 2.471 1.218l16.666 49.04a1.947 1.947 0 0 1-1.218 2.471l-21.265 7.227a1.95 1.95 0 0 1-2.472-1.218l-16.666-49.04a1.95 1.95 0 0 1 1.219-2.471z"/><path fill="#D4DFEC" d="M918.897 347.411l21.265-7.227a1.95 1.95 0 0 1 2.472 1.218l16.665 49.04a1.947 1.947 0 0 1-1.218 2.471l-21.266 7.227a1.948 1.948 0 0 1-2.471-1.218l-16.665-49.04a1.949 1.949 0 0 1 1.218-2.471z"/><circle fill="#939498" cx="934.352" cy="359.377" r="4.136"/><path fill="#C77486" d="M906.827 442.774v1.5l16.043-8.238 1.648-8.09 2.878-14.083s32.542-47.749 10.896-48.379c-21.645-.63-21.771 35.958-20.534 40.026.917 2.922-5.076 20.763-8.548 30.675-1.397 3.919-2.383 6.589-2.383 6.589z"/><path opacity=".1" d="M892.676 473.186s-5.569-44.117 8.571-51.828l14.129-7.701s-11.563 25.909-6.876 26.872c4.688.962 18.415-11.023 18.415-11.023v27.833l-34.239 15.847z"/><path opacity=".1" d="M906.827 442.774v1.5l16.043-8.238 1.648-8.09c-4.364 3.438-11.894 8.961-15.136 8.308a.962.962 0 0 1-.195-.069 468.665 468.665 0 0 1-2.36 6.589z"/><path fill="#FFD7E3" d="M891.874 471.467s-5.57-44.105 8.57-51.816l14.129-7.712s-11.562 25.92-6.875 26.882c4.687.963 18.414-11.034 18.414-11.034v27.844l-34.238 15.836z"/><circle fill="#FEFFFF" cx="971.913" cy="431.647" r="4.389"/><path fill="#DEBDC2" d="M824.828 640.232s42.627-3.3 58.577-34.102c0 0 32.464-64.364 58.864-71.514 26.401-7.151 75.353-23.101 95.704-47.852 20.351-24.751 28.888-43.727 28.888-43.727s5.225 20.076-11.275 43.727c-16.501 23.65-22.563 59.952-34.113 98.465s-15.951 53.856-36.852 56.148c-15.756 1.661-99.061.825-138.893 0-13.016-.308-20.9-1.145-20.9-1.145z"/><path opacity=".2" fill="#FFF" d="M824.828 640.232s42.627-3.3 58.577-34.102c0 0 32.464-64.364 58.864-71.514 26.401-7.151 75.353-23.101 95.704-47.852 20.351-24.751 28.888-43.727 28.888-43.727s5.225 20.076-11.275 43.727c-16.501 23.65-22.563 59.952-34.113 98.465s-15.951 53.856-36.852 56.148c-15.756 1.661-99.061.825-138.893 0-13.016-.308-20.9-1.145-20.9-1.145z"/><path fill="#DEBDC2" d="M835.554 640.301s40.747-3.196 55.999-33.024c0 0 31.019-62.313 56.251-69.234 25.233-6.921 72.031-22.379 91.488-46.34 19.456-23.96 27.604-42.34 27.604-42.34s4.995 19.48-10.783 42.34c-15.779 22.861-21.555 58.051-32.601 95.292-11.047 37.241-15.24 52.195-35.225 54.327-15.057 1.604-94.685.79-132.762 0-12.443-.218-19.971-1.021-19.971-1.021z"/><path fill="#C77486" d="M1072.132 440.631s-19.709 1.283-25.702 3.644c-3.185 1.25-11.299 2.292-18.196 3.06a36.908 36.908 0 0 0-25.209 13.613c-5.615 7.116-8.445 15.904 2.682 22.539 22.275 13.282 49.272-24.407 49.272-24.407l23.548-3.438-6.395-15.011z"/><path fill="#FFD7E3" d="M1062.713 438.82c7.7-.539 16.271 35.225 16.271 35.225s14.129-3.002 22.7-7.288 30.411-11.126 30.411-11.126a52.036 52.036 0 0 0 17.555-6.004c9.419-5.133-5.145-19.697-7.275-23.548-2.132-3.85-15.848-11.997-15.848-11.997l-10.715-2.143-48.39 8.572 31.26 7.276-3.896 1.203-10.485 3.209-21.588 6.621z"/><path fill="#FFD7E3" d="M1084.301 432.198l9.248 24.717c18.631 14.552 17.188-5.729 17.188-5.729l-15.893-22.242-10.543 3.254z"/><path opacity=".1" d="M1085.952 433.022l9.247 24.717c18.632 14.553 17.188-5.729 17.188-5.729l-15.894-22.242-10.541 3.254z"/><circle fill="#FEFFFF" cx="1104.79" cy="455.631" r="4.389"/><path opacity=".1" d="M965.646 297.843a6.05 6.05 0 0 1-4.962-5.844c0-3.346 2.876-6.417 2.119-9.683-.377-1.685-1.695-3.083-1.947-4.801-.436-3.094 2.635-5.443 5.316-7.047l23.778-14.221c5.671-3.438 11.894-6.876 18.437-6.073 6.038.767 11.023 5.122 14.759 9.935 3.735 4.813 6.635 10.313 10.816 14.69 7.633 8.089 18.747 11.997 27.044 19.411a19.04 19.04 0 0 1 5.385 7.184c3.438 9.328-5.087 18.965-5.029 28.934 0 8.731 6.657 15.973 13.521 21.37 2.922 2.292 6.199 4.813 6.784 8.479.458 2.831-.837 5.592-1.639 8.342-4.103 14.003 4.836 28.83 16.306 37.813 3.438 2.693 7.3 5.375 8.548 9.534 1.857 6.096-2.738 12.066-6.646 17.108-6.875 8.823-12.604 18.872-14.255 29.919-1.649 11.046 1.329 23.216 9.66 30.675-6.212.997-12.605 1.994-18.724.573-6.12-1.421-11.976-5.866-13.087-12.043-1.203-6.657 2.911-14.645-1.569-19.72-3.438-3.851-9.442-3.129-14.541-3.805a23.764 23.764 0 0 1-19.973-21.771c-.333-7.551 3.025-14.69 5.627-21.771 2.601-7.082 4.491-15.16 1.352-22.036-5.065-11.069-21.554-15.687-22.265-27.833-.424-7.139 5.236-14.415 2.291-20.935-1.959-4.39-6.979-6.337-10.725-9.328-5.901-4.698-8.755-12.124-12.605-18.586a88.269 88.269 0 0 0-11.138-14.289c-1.341-1.444-3.885-5.226-5.9-5.729-2.361-.469-4.184 1.937-6.738 1.548z"/><path fill="#3F2B3B" d="M967.364 296.983a6.064 6.064 0 0 1-4.974-5.832c0-3.358 2.876-6.429 2.133-9.694-.391-1.685-1.709-3.083-1.949-4.801-.436-3.094 2.625-5.443 5.306-7.047l23.788-14.22c5.661-3.38 11.883-6.875 18.427-6.073 6.05.768 11.022 5.122 14.758 9.935s6.646 10.313 10.817 14.702c7.632 8.09 18.758 11.986 27.043 19.4a18.78 18.78 0 0 1 5.386 7.185c3.438 9.339-5.089 18.976-5.03 28.934.058 8.732 6.668 15.974 13.521 21.371 2.921 2.292 6.21 4.813 6.794 8.479.448 2.83-.848 5.592-1.648 8.342-4.104 14.015 4.846 28.831 16.306 37.814 3.437 2.693 7.299 5.374 8.56 9.534 1.845 6.107-2.739 12.066-6.646 17.108-6.876 8.823-12.604 18.873-14.266 29.919-1.662 11.046 1.34 23.227 9.659 30.675-6.199.997-12.604 2.005-18.713.584-6.106-1.421-11.974-5.879-13.097-12.054-1.146-6.658 2.922-14.645-1.559-19.709-3.438-3.862-9.442-3.14-14.542-3.816-10.909-1.73-19.186-10.753-19.973-21.771-.331-7.552 3.015-14.69 5.627-21.772 2.612-7.081 4.48-15.102 1.341-21.978-5.054-11.07-21.543-15.676-22.265-27.833-.412-7.127 5.249-14.415 2.292-20.935-1.96-4.389-6.979-6.337-10.737-9.328-5.901-4.697-8.754-12.123-12.604-18.585a87.65 87.65 0 0 0-11.138-14.278c-1.342-1.455-3.885-5.236-5.913-5.729-2.339-.532-4.148 1.874-6.704 1.473z"/><path opacity=".1" d="M965.015 281.789c-.39-1.696-1.707-3.083-1.947-4.802-.436-3.104 2.623-5.442 5.316-7.046l.55-.333a4.206 4.206 0 0 0-.298 2.292c.241 1.719 1.559 3.117 1.949 4.801.743 3.266-2.098 6.336-2.133 9.683a6.064 6.064 0 0 0 4.974 5.844c2.556.389 4.366-2.017 6.703-1.49 2.028.459 4.583 4.24 5.913 5.729a88.345 88.345 0 0 1 11.138 14.29c3.896 6.462 6.738 13.888 12.604 18.586 3.759 2.991 8.777 4.939 10.737 9.328 2.922 6.52-2.739 13.75-2.291 20.935.71 12.146 17.188 16.764 22.253 27.833 3.139 6.875 1.261 14.896-1.341 22.035-2.602 7.139-5.959 14.232-5.627 21.771a23.753 23.753 0 0 0 19.973 21.772c5.1.676 11.139 0 14.541 3.816 4.48 5.064.367 13.052 1.559 19.709 1.146 6.177 6.979 10.622 13.098 12.043 3.133.678 6.352.882 9.545.608a27.369 27.369 0 0 0 3.609 3.838c-6.198 1.008-12.604 2.004-18.712.584-6.108-1.421-11.975-5.868-13.085-12.055-1.146-6.658 2.909-14.645-1.571-19.709-3.438-3.861-9.441-3.127-14.541-3.804-10.907-1.734-19.184-10.756-19.973-21.771-.332-7.552 3.014-14.702 5.627-21.772 2.612-7.07 4.491-15.161 1.341-22.036-5.054-11.069-21.543-15.676-22.254-27.822-.424-7.139 5.237-14.416 2.293-20.947-1.961-4.377-6.979-6.326-10.738-9.316-5.9-4.709-8.742-12.135-12.604-18.597a88.197 88.197 0 0 0-11.138-14.278c-1.341-1.444-3.885-5.225-5.901-5.729-2.291-.528-4.159 1.878-6.715 1.489a6.074 6.074 0 0 1-4.974-5.844c.023-3.298 2.865-6.369 2.12-9.635zM802.553 624.281s22.275 8.526 34.926 3.851c12.651-4.675 44.002-18.426 44.002-18.426s-52.803 3.3-78.928 14.575z"/><path fill="#DEBDC2" d="M613.149 388.952s-5.259 24.487 18.151 27.397l1.443-2.727c.001.001-18.173-17.05-19.594-24.67z"/><path fill="#DEBDC2" d="M640.192 413.439l-5.442 1.146-.551.115s-14.518-11.791-14.335-38.101a65.527 65.527 0 0 0 6.875 10.966c5.822 7.632 12.365 17.796 13.453 25.874z"/><path fill="#DEBDC2" d="M642.072 415.96a3.439 3.439 0 0 1-2.923.389c-13.979-3.266-9.259-48.814-9.259-48.814.779.367 1.627 6.154 4.836 13.636 5.593 13.144 11.791 31.501 7.346 34.789zm30.939-27.008s.905 24.487-22.505 27.397l-1.456-2.727c0 .001 22.528-17.05 23.961-24.67z"/><path fill="#DEBDC2" d="M666.318 376.611c.172 26.355-18.689 38.101-18.689 38.101l-.55-.115-5.443-1.146c1.077-8.079 7.632-18.242 13.384-25.862a59.103 59.103 0 0 1 11.298-10.978z"/><path fill="#DEBDC2" d="M646.999 413.577a8.559 8.559 0 0 1-3.117 2.384 5.863 5.863 0 0 1-1.146.389c-3.438.802-4.642-1.684-4.435-5.89.321-7.505 5.03-20.511 9.271-30.251 3.048-7.013 8.021-12.318 8.777-12.674-.011 0-.218 35.465-9.35 46.042z"/><path fill="#DEBDC2" d="M643.092 351.562s-15.607 55.346-2.177 63.699c13.429 8.354 5.626-58.794 2.177-63.699z"/><path opacity=".1" d="M613.149 388.952s-5.259 24.487 18.151 27.397l1.443-2.727c.001.001-18.173-17.05-19.594-24.67z"/><path opacity=".1" d="M640.192 413.439l-5.442 1.146-.551.115s-14.518-11.791-14.335-38.101a65.527 65.527 0 0 0 6.875 10.966c5.822 7.632 12.365 17.796 13.453 25.874z"/><path opacity=".1" d="M642.072 415.96a3.439 3.439 0 0 1-2.923.389c-13.979-3.266-9.259-48.814-9.259-48.814.779.367 1.627 6.154 4.836 13.636 5.593 13.144 11.791 31.501 7.346 34.789zm30.939-27.008s.905 24.487-22.505 27.397l-1.456-2.727c0 .001 22.528-17.05 23.961-24.67z"/><path opacity=".1" d="M666.318 376.611c.172 26.355-18.689 38.101-18.689 38.101l-.55-.115-5.443-1.146c1.077-8.079 7.632-18.242 13.384-25.862a59.103 59.103 0 0 1 11.298-10.978z"/><path opacity=".1" d="M646.999 413.577a8.559 8.559 0 0 1-3.117 2.384 5.863 5.863 0 0 1-1.146.389c-3.438.802-4.642-1.684-4.435-5.89.321-7.505 5.03-20.511 9.271-30.251 3.048-7.013 8.021-12.318 8.777-12.674-.011 0-.218 35.465-9.35 46.042z"/><path opacity=".1" d="M643.092 351.562s-15.607 55.346-2.177 63.699c13.429 8.354 5.626-58.794 2.177-63.699z"/><path fill="#DEBDC2" d="M613.149 388.952s-3.083 24.487 20.327 27.397l1.445-2.727c.001.001-20.351-17.05-21.772-24.67z"/><path fill="#DEBDC2" d="M642.369 413.439l-5.443 1.146-.549.115s-16.695-11.791-16.513-38.101c0 0 4.274 4.584 9.168 10.966 5.705 7.632 12.248 17.796 13.337 25.874z"/><path opacity=".1" d="M642.369 413.439l-5.443 1.146c-5.167-4.583-7.207-16.351-7.951-27.02 5.762 7.632 12.305 17.796 13.394 25.874z"/><path fill="#DEBDC2" d="M644.203 415.96a3.437 3.437 0 0 1-2.923.389c-13.979-3.266-11.458-48.814-11.458-48.814.779.367 3.804 6.154 7.013 13.636 5.661 13.144 11.859 31.501 7.368 34.789zm28.808-27.008s3.083 24.487-20.329 27.397l-1.443-2.727c-.001.001 20.339-17.05 21.772-24.67z"/><path fill="#DEBDC2" d="M666.318 376.611c.172 26.355-16.513 38.101-16.513 38.101l-.549-.115-5.443-1.146c1.077-8.079 7.632-18.242 13.384-25.862 4.848-6.395 9.121-10.978 9.121-10.978z"/><path opacity=".1" d="M657.197 387.611c-.699 9.947-2.521 20.89-6.933 26a8.595 8.595 0 0 1-1.008 1.02l-5.443-1.146c1.078-8.124 7.632-18.288 13.384-25.874z"/><path fill="#DEBDC2" d="M649.176 413.577a8.556 8.556 0 0 1-3.116 2.384 5.886 5.886 0 0 1-1.146.389c-3.438.802-4.641-1.684-4.434-5.89.32-7.505 5.029-20.511 9.271-30.251 3.047-7.013 5.854-12.318 6.6-12.674-.013 0 1.958 35.465-7.175 46.042z"/><path opacity=".1" d="M644.203 415.96a3.87 3.87 0 0 1-2.2-.699c-6.577-4.102-6.715-19.48-5.145-34.09 5.638 13.144 11.836 31.501 7.345 34.789z"/><path opacity=".1" d="M649.176 413.577c-.756 1.639-1.775 2.51-3.116 2.384a4.25 4.25 0 0 1-1.868-.699 9.912 9.912 0 0 1-3.712-4.801c.32-7.505 5.029-20.511 9.271-30.251 1.487 13.509 2.003 27.832-.575 33.367z"/><path fill="#DEBDC2" d="M643.092 351.562s-13.43 55.346 0 63.699c13.429 8.354 3.449-58.794 0-63.699z"/><path fill="#4B4770" d="M668.862 412.534h-55.896v9.259h8.536l.207 1.088 3.414 17.968h32.485l3.427-17.968.206-1.088h7.62v-9.259z"/><path opacity=".1" d="M668.862 412.534h-55.896v9.259h8.536l.207 1.088 3.414 17.968h32.485l3.427-17.968.206-1.088h7.62v-9.259z"/><path fill="#4B4770" d="M664.142 417.977l-.929 4.904-3.426 17.968h-32.485l-3.415-17.968-.94-4.904h41.195z"/><path opacity=".1" d="M664.142 417.977l-.929 4.904h-39.326l-.94-4.904h41.195z"/><path fill="#4B4770" d="M615.144 412.534h55.884v9.259h-55.884v-9.259z"/><path fill="#DEBDC2" d="M189.666 759.049a19.34 19.34 0 0 0-2.601 4.916c-.172.424-.321.916-.482 1.386a5.29 5.29 0 0 0-.905-.32 12.976 12.976 0 0 0-4.09-.344c0-.539.057-1.146.081-1.685.16-6.039-.55-14.45-6.303-10.886-5.534 3.438-1.592 9.167 1.972 12.834l.917.905c-3.243 2.291-3.861 7.712-4.412 13.338-.55 5.626-5.317 11.768-8.457 15.286l-.894.962a11.632 11.632 0 0 0-9.167-2.372l-.424-1.546c-2.567-9.271-7.896-25.324-14.69-28.843.287-.355.584-.721.894-1.146 2.888-3.77 6.131-9.385 1.33-10.817s-5.225 4.87-4.961 9.58c0 .596.046 1.157.137 1.684a7.06 7.06 0 0 0-5.031 2.452l-.733-.882c-3.896-4.584-11.046-11.883-13.201-6.371-2.017 5.134 4.274 11.803 8.697 15.664l.275.241c-2.98 12.043 9.992 21.863 16.97 26.161l.894.549c-9.625 11.345-15.561 32.611-15.561 32.611l26.951 4.813s17.865-15.424 15.584-29.908a.932.932 0 0 0 .183 0c17.853-3.574 21.921-22.618 19.136-33.917l.321-.138a20.28 20.28 0 0 0 8.262-6.256c4.927-6.977-5.558-14.77-10.692-7.951z"/><path opacity=".1" d="M189.666 759.049a19.34 19.34 0 0 0-2.601 4.916c-.172.424-.321.916-.482 1.386a5.29 5.29 0 0 0-.905-.32 12.976 12.976 0 0 0-4.09-.344c0-.539.057-1.146.081-1.685.16-6.039-.55-14.45-6.303-10.886-5.534 3.438-1.592 9.167 1.972 12.834l.917.905c-3.243 2.291-3.861 7.712-4.412 13.338-.55 5.626-5.317 11.768-8.457 15.286l-.894.962a11.632 11.632 0 0 0-9.167-2.372l-.424-1.546c-2.567-9.271-7.896-25.324-14.69-28.843.287-.355.584-.721.894-1.146 2.888-3.77 6.131-9.385 1.33-10.817s-5.225 4.87-4.961 9.58c0 .596.046 1.157.137 1.684a7.06 7.06 0 0 0-5.031 2.452l-.733-.882c-3.896-4.584-11.046-11.883-13.201-6.371-2.017 5.134 4.274 11.803 8.697 15.664l.275.241c-2.98 12.043 9.992 21.863 16.97 26.161l.894.549c-9.625 11.345-15.561 32.611-15.561 32.611l26.951 4.813s17.865-15.424 15.584-29.908a.932.932 0 0 0 .183 0c17.853-3.574 21.921-22.618 19.136-33.917l.321-.138a20.28 20.28 0 0 0 8.262-6.256c4.927-6.977-5.558-14.77-10.692-7.951z"/><path fill="#DEBDC2" d="M136.016 766.817l-3.151 9.247s-1.742-1.236-3.954-3.186c-4.423-3.861-10.713-10.53-8.697-15.664 2.154-5.512 9.305 1.765 13.201 6.371a53.55 53.55 0 0 1 2.601 3.232zm6.657-5.27a43.439 43.439 0 0 1-3.071 3.621 45.028 45.028 0 0 1-.562-4.859c-.263-4.709.229-10.988 4.962-9.579s1.56 7-1.329 10.817zm40.645 1.455c-.103 3.036-.401 5.466-.401 5.466a39.739 39.739 0 0 1-3.931-3.518c-3.563-3.69-7.505-9.408-1.971-12.834 5.753-3.552 6.464 4.847 6.303 10.886zm18.609 3.976a20.263 20.263 0 0 1-8.262 6.257c-.901.397-1.828.734-2.773 1.009l-3.735-5.214c.39-1.723.903-3.415 1.536-5.064a19.321 19.321 0 0 1 2.6-4.916c5.157-6.82 15.642.973 10.634 7.928z"/><path opacity=".1" d="M133.415 763.563a57.769 57.769 0 0 1 2.601 3.254l-3.151 9.247s-1.742-1.236-3.954-3.186a17.971 17.971 0 0 1 3.542-8.102c.32-.456.652-.846.962-1.213zm9.258-2.016a43.439 43.439 0 0 1-3.071 3.621 45.028 45.028 0 0 1-.562-4.859 6.357 6.357 0 0 1 3.633 1.238z"/><path fill="#DEBDC2" d="M158.166 798.169l-7.837 3.438a48.175 48.175 0 0 1-4.171-2.36c-8.239-5.066-24.809-17.819-13.751-32.854 11.058-15.033 20.362 11.929 24.064 25.118a141.671 141.671 0 0 1 1.695 6.658z"/><path opacity=".1" d="M178.986 764.95a6.494 6.494 0 0 1 4.332-1.948c-.103 3.036-.401 5.466-.401 5.466a39.739 39.739 0 0 1-3.931-3.518zm14.68 8.284c-.901.397-1.828.734-2.773 1.009l-3.735-5.214c.39-1.724.903-3.415 1.536-5.064 2.416 1.397 4.192 4.881 4.972 9.269z"/><path fill="#DEBDC2" d="M174.208 807.29a24.29 24.29 0 0 1-1.317.241c-26.275 3.986-8.663-10.188-8.663-10.188s1.146-1.146 2.785-2.864c3.163-3.507 7.941-9.625 8.479-15.286.825-8.515 1.787-16.501 11.837-14.163 9.866 2.315 11.745 37.287-13.121 42.26z"/><path fill="#D4DFEC" d="M123.515 872.708h50.201v13.201h-50.201v-13.201z"/><path fill="#D4DFEC" d="M115.539 829.807h65.59v46.064h-65.59v-46.064z"/><path opacity=".1" d="M123.515 872.708h50.201v13.201h-50.201v-13.201z"/><path opacity=".1" d="M115.539 829.807h65.59v46.064h-65.59v-46.064z"/><path fill="#D4DFEC" d="M126.815 872.708h50.201v13.201h-50.201v-13.201z"/><path opacity=".1" d="M156.47 791.522c1.146 3.942 1.695 6.646 1.695 6.646l-7.837 3.438a48.175 48.175 0 0 1-4.171-2.36c3.071-3.885 6.531-6.817 10.313-7.724zm17.738 15.768a24.29 24.29 0 0 1-1.317.241c-26.275 3.986-8.663-10.188-8.663-10.188s1.146-1.146 2.785-2.864c4.904 3.919 6.932 8.342 7.195 12.811z"/><path fill="#DEBDC2" d="M131.49 832.42s14.713-52.711 35.339-36.439c20.625 16.271-8.388 41.252-8.388 41.252l-26.951-4.813z"/><circle opacity=".1" cx="138.915" cy="774.667" r="1.65"/><circle opacity=".1" cx="138.778" cy="782.367" r="1.65"/><circle opacity=".1" cx="186.641" cy="776.179" r="1.65"/><circle opacity=".1" cx="148.128" cy="815.644" r="1.65"/><circle opacity=".1" cx="183.204" cy="788.967" r="1.65"/><circle opacity=".1" cx="166.142" cy="806.019" r="1.65"/><circle opacity=".1" cx="144.553" cy="777.966" r="1.65"/><circle opacity=".1" cx="182.104" cy="781.13" r="1.65"/><circle opacity=".1" cx="176.455" cy="793.918" r="1.65"/><circle opacity=".1" cx="159.128" cy="814.406" r="1.65"/><circle opacity=".1" cx="155.553" cy="806.293" r="1.65"/><circle opacity=".1" cx="147.028" cy="788.005" r="1.65"/><path opacity=".1" d="M126.815 872.708h50.201v4.824h-50.201v-4.824z"/><path fill="#D4DFEC" d="M118.839 829.807h65.59v46.064h-65.59v-46.064z"/><circle opacity=".1" cx="161.329" cy="821.832" r="1.65"/><circle opacity=".1" cx="151.428" cy="823.894" r="1.65"/><path fill="#E8EAF2" d="M723.223 454.588c0 4.973-10.691 10.829-23.892 10.829s-23.88-5.855-23.88-10.829c0-4.973 10.691-7.208 23.88-7.208 13.19 0 23.892 2.224 23.892 7.208z"/><path opacity=".1" d="M723.223 454.588c0 4.973-10.691 10.829-23.892 10.829s-23.88-5.855-23.88-10.829c0-4.973 10.691-7.208 23.88-7.208 13.19 0 23.892 2.224 23.892 7.208z"/><ellipse fill="#E8EAF2" cx="699.343" cy="454.588" rx="23.893" ry="9.018"/><ellipse opacity=".1" cx="699.343" cy="454.588" rx="13.51" ry="5.1"/><path fill="#FFD7E3" d="M718.903 443.759c-2.292 5.913-5.855 7.643-8.641 8.021a9.32 9.32 0 0 1-4.159-.424l1.65-3.529a5.59 5.59 0 0 0 3.186 0c1.455-.459 3.07-1.662 4.182-4.584 1.753-4.492-.435-5.145-1.959-5.122a6.015 6.015 0 0 0-.928.091l1.306-2.784a8.892 8.892 0 0 1 1.307-.229c2.474-.24 7.299.23 4.056 8.56z"/><path fill="#F1CEC8" d="M708.35 456.101c-9.305 4.847-18.438 0-18.438 0l.137-1.34.092-1.009 17.979-.344.138 1.605.092 1.088z"/><path opacity=".1" d="M710.939 447.782a27.894 27.894 0 0 1-.677 3.976c-1.4.175-2.822.03-4.159-.424l1.65-3.529c1.042.3 2.148.293 3.186-.023zm3.908-12.582c-.12.354-.29.69-.504.997l-.139.194a22.93 22.93 0 0 0-1.042 1.73 6.015 6.015 0 0 0-.928.091l1.306-2.784a8.89 8.89 0 0 1 1.307-.228zm-6.589 19.812c-3.186 1.707-15.137 2.2-18.208-.252l.091-1.009 17.979-.344.138 1.605z"/><path fill="#FFD7E3" d="M713.999 436.197l-.139.194a17.773 17.773 0 0 0-3.025 8.755c-.561 7.735-1.706 8.502-1.833 8.834-.929 2.35-16.97 3.266-19.377 0-1.993-2.704-3.93-8.559-3.036-11.848.481-1.777-.527-3.725-1.559-5.157a3.976 3.976 0 0 1 1.066-5.672c4.584-2.922 12.604-3.083 12.604-3.083 6.876-.527 11.276.802 13.957 2.292l.344.207a3.953 3.953 0 0 1 .986 5.511l.012-.033z"/><ellipse opacity=".1" cx="699.091" cy="435.452" rx="12.18" ry="2.876"/><ellipse fill="#42312E" cx="699.091" cy="435.795" rx="12.18" ry="2.876"/><path opacity=".2" fill="#FFF" d="M701.657 433.985s-8.755.287-8.502 3.438a22.067 22.067 0 0 1 8.502-3.438zm2.464.802s-5.213 0-4.39 2.601c0 0 1.216-.195 1.044-.859-.172-.665 3.346-1.375 3.346-1.375v-.367z"/><path fill="#F6E2DF" d="M685.535 433.985s-.344 5.363 13.314 5.065c13.659-.298 13.59-3.85 13.75-5.065h-.744s-.172 4.377-12.765 4.263c-12.594-.114-12.938-4.263-12.938-4.263h-.617z"/><path opacity=".1" d="M714.583 433.114l-8.239 4.401a.782.782 0 0 1-.975-.207l-.137-.172a1.02 1.02 0 0 1 .162-1.433c.025-.021.052-.039.079-.057l7.539-4.778a3.885 3.885 0 0 1 1.571 2.246z"/><path fill="#E8EAF2" d="M705.474 435.383l21.394-13.556a3.213 3.213 0 0 1 1.604-.516c1.078 0 2.602.172 2.12 1.902a3.232 3.232 0 0 1-1.615 1.959l-22.598 12.078a.78.78 0 0 1-.974-.195l-.138-.171a1.032 1.032 0 0 1 .142-1.452c.02-.016.041-.033.065-.049z"/><path opacity=".1" d="M705.474 435.383l21.394-13.556a3.213 3.213 0 0 1 1.604-.516c1.078 0 2.602.172 2.12 1.902a3.232 3.232 0 0 1-1.615 1.959l-22.598 12.078a.78.78 0 0 1-.974-.195l-.138-.171a1.032 1.032 0 0 1 .142-1.452c.02-.016.041-.033.065-.049z"/><path fill="#E8EAF2" d="M705.474 435.211l21.394-13.556a3.202 3.202 0 0 1 1.604-.515c1.078 0 2.602.171 2.12 1.901a3.234 3.234 0 0 1-1.615 1.96l-22.598 12.078a.79.79 0 0 1-.974-.195l-.138-.172a1.032 1.032 0 0 1 .207-1.501z"/><path opacity=".1" d="M704.293 435.601s2.292-.492 1.982.115c-.311.608.985 1.364.985 1.364s-2.36.561-2.716.217-.251-1.696-.251-1.696z"/><path fill="#42312E" d="M704.121 435.738s2.292-.481 1.982.114c-.31.596.985 1.375.985 1.375s-2.36.561-2.716.217c-.354-.342-.251-1.706-.251-1.706z"/><path fill="#F2DCDC" d="M700.512 411.95a8.428 8.428 0 0 0-2.04 3.804c-.17 1.32-.127 2.659.126 3.965.099.895.252 1.782.458 2.658.127.504.459 1.054.7.71 0-1.237-.264-2.452-.207-3.69a8.458 8.458 0 0 1 1.146-3.644 18.385 18.385 0 0 0 1.558-3.197c.172-.539.837-5.397-.08-4.583-.184.171-.4 1.765-.572 2.166a8.086 8.086 0 0 1-1.089 1.811zm.388 7.998c.069.458.448.791.62 1.215.09.27.14.552.147.836a6.118 6.118 0 0 1-.606 4.034 2.805 2.805 0 0 0 1.535-2.074c.115-.458.185-.926.207-1.397.022-.447.022-.894 0-1.341 0-.676.205-2.429-.631-2.762-.836-.334-1.272.847-1.272 1.489z"/><path opacity=".1" d="M686.761 441.17a5.137 5.137 0 0 0 3.931 1.765s-2.773.412-4.137-.482l.206-1.283z"/><path fill="#464A5F" d="M448.784 390.831v55.232l-57.237 1.649v-55.231l57.237-1.65z"/><path opacity=".1" d="M448.486 439.153l.298 8.56h-57.237l-.103-5.26 57.042-3.3z"/><path fill="#464A5F" d="M466.271 448.767l-89.035 3.3a8.72 8.72 0 0 1 8.72-8.721l71.628-3.3a8.72 8.72 0 0 1 8.72 8.721h-.033zm112.548-58.864l-315.587 9.9a5.523 5.523 0 0 1-5.534-5.512V204.66a5.523 5.523 0 0 1 5.523-5.523h.011l315.587-9.9a5.524 5.524 0 0 1 5.535 5.512V384.323a5.524 5.524 0 0 1-5.466 5.581l-.069-.001z"/><path fill="#DEBDC2" d="M576.791 376.553l-312.207 9.901V222.57l312.207-9.913v163.896z"/><ellipse fill="#FFF" cx="420.137" cy="206.39" rx="2.75" ry="2.716"/><path opacity=".1" d="M448.727 399.311l-57.053 1.65v-1.077l57.053-1.65v1.077z"/><path opacity=".2" d="M576.986 218.021l-312.425 9.9v-5.661l312.425-9.901v5.662z"/><path fill="#464A5F" d="M92.495 443.152l3.037 5.488 98.81-20.946-3.908-6.21-97.939 21.668z"/><path fill="#464A5F" d="M80.647 448.492l-14.953-88.76a2.83 2.83 0 0 1 2.486-3.289l113.442-12.101a2.83 2.83 0 0 1 3.105 2.44l10.611 77.737-114.691 23.973z"/><path opacity=".1" d="M80.647 448.492l-14.953-88.76a2.83 2.83 0 0 1 2.486-3.289l113.442-12.101a2.83 2.83 0 0 1 3.105 2.44l10.611 77.737-114.691 23.973z"/><path fill="#464A5F" d="M82.389 448.492l-14.965-88.76a2.841 2.841 0 0 1 2.498-3.288l113.442-12.101a2.83 2.83 0 0 1 3.105 2.44l10.611 77.737-114.691 23.972z"/><path fill="#DEBDC2" d="M75.307 363.697l12.284 75.41 102.556-21.095-9.534-67.023-105.306 12.708z"/><path fill="#9C9CA1" d="M94.948 446.911l-.722-1.443-13.579 3.024 34.594 52.848a4.46 4.46 0 0 0 4.985 1.845l121.463-35.304a4.47 4.47 0 0 0 1.455-7.861l-47.073-35.648-9.82 2.292.424 1.009-91.727 19.238z"/><path opacity=".1" d="M94.948 446.911l-.722-1.443-13.579 3.024 34.594 52.848a4.46 4.46 0 0 0 4.985 1.845l121.463-35.304a4.47 4.47 0 0 0 1.455-7.861l-47.073-35.648-9.82 2.292.424 1.009-91.727 19.238z"/><path fill="#9C9CA1" d="M96.689 446.911l-.722-1.443-13.579 3.024 34.583 52.848a4.47 4.47 0 0 0 4.996 1.845l121.463-35.304a4.469 4.469 0 0 0 1.455-7.861l-47.073-35.648-9.82 2.292.435 1.009-91.738 19.238z"/><path opacity=".1" d="M150.867 468.556l39.029-10.141a.78.78 0 0 1 .699.172l17.337 15.733a.756.756 0 0 1-.298 1.283l-41.251 12.192a.768.768 0 0 1-.791-.24l-15.104-17.773a.768.768 0 0 1 .379-1.226z"/><path fill="#939498" d="M151.726 467.697l39.041-10.187c.247-.065.51 0 .698.171l17.337 15.722a.757.757 0 0 1-.298 1.283l-41.252 12.192a.769.769 0 0 1-.791-.241l-15.114-17.669a.744.744 0 0 1 .379-1.271z"/><g opacity=".1"><path d="M96.758 454.278l1.753 2.831a.356.356 0 0 0 .355.149l5.913-1.318a.344.344 0 0 0 .206-.528l-1.96-2.727a.344.344 0 0 0-.344-.138l-5.729 1.226a.332.332 0 0 0-.194.505zm7.723-1.627l1.753 2.831a.343.343 0 0 0 .366.149l5.913-1.318a.344.344 0 0 0 .195-.526l-1.959-2.728a.335.335 0 0 0-.344-.138l-5.729 1.227a.343.343 0 0 0-.195.503zm7.518-1.615l1.753 2.819c.075.121.217.18.355.149l5.913-1.317a.344.344 0 0 0 .207-.528l-1.959-2.67a.368.368 0 0 0-.344-.137l-5.729 1.226a.343.343 0 0 0-.201.442c0 .005.003.01.005.016zm7.379-1.548l1.73 2.785a.356.356 0 0 0 .378.16l5.867-1.306a.368.368 0 0 0 .219-.562l-1.925-2.693a.365.365 0 0 0-.378-.137l-5.661 1.215a.367.367 0 0 0-.23.538zm-.596 4.252l1.753 2.819a.332.332 0 0 0 .367.149l5.913-1.317a.333.333 0 0 0 .195-.516l-1.959-2.739a.32.32 0 0 0-.344-.125l-5.729 1.226a.345.345 0 0 0-.196.503zm-7.655 1.627l1.753 2.819a.32.32 0 0 0 .355.149l5.925-1.318a.344.344 0 0 0 .194-.526l-1.959-2.728a.331.331 0 0 0-.344-.125l-5.729 1.226a.332.332 0 0 0-.195.503zm4.985 3.461l1.753 2.83a.343.343 0 0 0 .355.149l5.913-1.318a.344.344 0 0 0 .195-.526l-1.96-2.728a.334.334 0 0 0-.344-.138l-5.729 1.226a.334.334 0 0 0-.183.505zm7.047 3.036l1.753 2.819a.344.344 0 0 0 .355.161l5.913-1.318a.344.344 0 0 0 .206-.528l-1.959-2.727a.322.322 0 0 0-.344-.138l-5.729 1.226a.332.332 0 0 0-.195.505zm1.215 4.905l2.831 3.552c.085.105.224.15.354.115l5.959-1.547a.331.331 0 0 0 .172-.538l-2.922-3.574a.33.33 0 0 0-.344-.115l-5.867 1.581a.333.333 0 0 0-.183.526zm7.78-1.948l2.899 3.656a.357.357 0 0 0 .356.114l7.78-2.154a.332.332 0 0 0 .16-.538l-2.922-3.586a.345.345 0 0 0-.355-.115l-7.746 2.086a.344.344 0 0 0-.172.537zm-15.4 3.826l2.831 3.553a.357.357 0 0 0 .354.115l5.959-1.547a.332.332 0 0 0 .172-.539l-2.922-3.552a.319.319 0 0 0-.343-.104l-5.867 1.582a.332.332 0 0 0-.184.492zm-8.044 2.098l2.83 3.542a.332.332 0 0 0 .344.114l5.958-1.547a.344.344 0 0 0 .184-.538l-2.934-3.575a.332.332 0 0 0-.344-.115l-5.867 1.581a.332.332 0 0 0-.171.538zm18.07-23.044l1.73 2.785c.079.128.23.192.378.16l5.867-1.306a.368.368 0 0 0 .218-.562l-1.925-2.727a.355.355 0 0 0-.367-.137l-5.729 1.214a.356.356 0 0 0-.172.573zm-.469 4.332l1.73 2.785c.079.128.23.192.378.16l5.867-1.306a.367.367 0 0 0 .218-.562l-1.925-2.693a.354.354 0 0 0-.366-.137l-5.729 1.214a.354.354 0 0 0-.215.454.27.27 0 0 0 .042.085zm7.654-5.982l1.73 2.784c.083.13.239.195.39.161l5.867-1.306a.367.367 0 0 0 .206-.562l-1.925-2.692a.356.356 0 0 0-.367-.138l-5.672 1.215a.356.356 0 0 0-.229.538zm21.016-4.583l2.44 2.589a.297.297 0 0 0 .275.081l5.236-1.215a.286.286 0 0 0 .138-.492l-2.75-2.59a.278.278 0 0 0-.264-.069l-4.927 1.215a.297.297 0 0 0-.148.481zm6.725-1.536l2.43 2.59c.07.076.176.107.275.08l5.236-1.203a.286.286 0 0 0 .138-.492l-2.75-2.601a.308.308 0 0 0-.263-.069l-4.928 1.214a.286.286 0 0 0-.138.481zm-6.577 5.741l2.44 2.589c.067.08.173.116.275.091l5.248-1.157a.287.287 0 0 0 .125-.493l-2.738-2.589a.298.298 0 0 0-.275-.081l-4.927 1.226a.285.285 0 0 0-.148.414zm-6.932 1.604l2.292 2.475a.356.356 0 0 0 .344.103l5.065-1.146a.367.367 0 0 0 .172-.619l-2.625-2.475a.358.358 0 0 0-.333-.081l-4.778 1.146a.366.366 0 0 0-.137.597zm5.282 7.804l2.292 2.476c.09.089.219.128.344.103l5.064-1.146a.354.354 0 0 0 .172-.606l-2.624-2.475a.391.391 0 0 0-.333-.092l-4.778 1.146a.367.367 0 0 0-.215.472.408.408 0 0 0 .078.122zm-7.185 1.627l2.292 2.475a.367.367 0 0 0 .344.103l5.064-1.146a.355.355 0 0 0 .172-.607l-2.532-2.51a.365.365 0 0 0-.332-.092l-4.778 1.146a.357.357 0 0 0-.23.631zm-7.264 1.799l2.292 2.474a.354.354 0 0 0 .344.104l5.077-1.146a.366.366 0 0 0 .16-.619l-2.624-2.476a.34.34 0 0 0-.332-.08l-4.778 1.146a.354.354 0 0 0-.231.446c.016.058.048.11.092.151zm-7.746 1.535l2.36 2.509a.367.367 0 0 0 .321.092l5.122-1.146a.334.334 0 0 0 .149-.573l-2.658-2.51a.332.332 0 0 0-.31-.08l-4.824 1.146a.331.331 0 0 0-.16.562zm14.93-7.849l2.292 2.475c.085.09.211.13.332.104l5.076-1.146a.356.356 0 0 0 .161-.608l-2.613-2.475a.394.394 0 0 0-.333-.092l-4.778 1.146a.367.367 0 0 0-.137.596zm-7.001 1.627l2.292 2.464a.355.355 0 0 0 .344.114l5.065-1.146a.356.356 0 0 0 .172-.607l-2.624-2.475a.332.332 0 0 0-.333-.091l-4.778 1.146a.366.366 0 0 0-.138.595zm-7.505 1.582l2.292 2.475a.334.334 0 0 0 .333.103l5.077-1.146a.368.368 0 0 0 .16-.619l-2.612-2.475a.358.358 0 0 0-.333-.08l-4.778 1.146a.343.343 0 0 0-.139.596zm-7.689 1.787l2.36 2.51c.086.08.206.114.321.091l5.122-1.146a.333.333 0 0 0 .16-.573l-2.658-2.509a.367.367 0 0 0-.321-.08l-4.824 1.146a.343.343 0 0 0-.16.561zm29.426-6.692l2.292 2.475a.367.367 0 0 0 .344.103l5.064-1.146a.354.354 0 0 0 .172-.606l-2.625-2.476a.368.368 0 0 0-.333-.091l-4.778 1.146a.356.356 0 0 0-.231.446.363.363 0 0 0 .095.149zm-12.25-1.41l2.292 2.476c.09.09.219.129.344.103l5.076-1.146a.355.355 0 0 0 .161-.608l-2.624-2.475a.345.345 0 0 0-.333-.092l-4.767 1.146a.355.355 0 0 0-.149.596zm26.997-10.794l2.544 2.705c.054.054.13.08.206.068l5.42-1.261a.217.217 0 0 0 .091-.366l-2.876-2.705a.183.183 0 0 0-.195-.057l-5.087 1.26a.206.206 0 0 0-.103.356zm6.532-1.409l2.555 2.704a.218.218 0 0 0 .206.069l5.41-1.26a.22.22 0 0 0 .103-.367l-2.876-2.715a.204.204 0 0 0-.195 0l-5.099 1.261a.206.206 0 0 0-.104.308zm6.703-1.581l2.292 2.51a.198.198 0 0 0 .207.069l5.053-1.375a.23.23 0 0 0 .08-.378l-2.612-2.189a.203.203 0 0 0-.183 0l-4.767 1.055a.218.218 0 0 0-.076.298l.006.01zm7.059 2.337l2.292 2.521c.055.06.138.086.217.068l5.042-1.375a.218.218 0 0 0 .08-.378l-2.601-2.188a.183.183 0 0 0-.184 0l-4.767 1.054a.205.205 0 0 0-.093.276l.014.022zm-.848 4.584l2.212 2.383c.07.083.183.115.287.081l4.858-1.318a.298.298 0 0 0 .115-.504l-2.475-2.074a.241.241 0 0 0-.241-.069l-4.583 1.02a.287.287 0 0 0-.173.481zm-5.741 5.81l2.212 2.395a.285.285 0 0 0 .286.08l4.859-1.33a.286.286 0 0 0 .114-.493l-2.475-2.085a.261.261 0 0 0-.241-.058l-4.583 1.008a.286.286 0 0 0-.248.32.284.284 0 0 0 .076.163zm-6.898 1.81l2.211 2.383c.07.083.184.116.287.081l4.858-1.318a.297.297 0 0 0 .115-.504l-2.475-2.074a.242.242 0 0 0-.241-.069l-4.584 1.02a.287.287 0 0 0-.171.481zm13.395-3.506l2.211 2.395a.322.322 0 0 0 .287.08l4.858-1.329a.288.288 0 0 0 .115-.505l-2.464-2.074a.326.326 0 0 0-.252-.068l-4.583 1.02a.297.297 0 0 0-.172.481zm-1.123 5.156l3.334 3.002a.32.32 0 0 0 .275.058l4.824-1.364a.287.287 0 0 0 .116-.493l-3.599-3.151a.287.287 0 0 0-.286-.058l-4.584 1.524a.274.274 0 0 0-.176.347.272.272 0 0 0 .096.135zm-11.676-10.599l2.292 2.521c.056.058.14.08.217.057l5.042-1.375a.207.207 0 0 0 .08-.367l-2.602-2.2a.274.274 0 0 0-.183 0l-4.768 1.054a.206.206 0 0 0-.101.273c.008.014.014.026.023.037zm-6.521 1.615l2.212 2.383a.3.3 0 0 0 .287.092l4.858-1.329a.298.298 0 0 0 .115-.504l-2.464-2.074a.331.331 0 0 0-.252-.069l-4.583 1.02a.297.297 0 0 0-.173.481zm-1.34 4.618l2.234 2.36c.071.081.184.112.286.081l4.87-1.329a.287.287 0 0 0 .104-.493l-2.464-2.085a.284.284 0 0 0-.252-.058l-4.583 1.009a.298.298 0 0 0-.195.515zm-6.864 1.662l2.211 2.395c.077.08.192.11.298.08l4.859-1.329a.288.288 0 0 0 .103-.493l-2.463-2.085a.287.287 0 0 0-.252-.058l-4.583 1.009a.297.297 0 0 0-.173.481zm1.238-4.733l2.212 2.395a.262.262 0 0 0 .286.08l4.859-1.329a.287.287 0 0 0 .115-.493l-2.475-2.097a.261.261 0 0 0-.241-.057l-4.583 1.02a.274.274 0 0 0-.265.285.265.265 0 0 0 .092.196zm5.74 7.334l2.212 2.395a.287.287 0 0 0 .287.08l4.858-1.329a.287.287 0 0 0 .115-.493l-2.476-2.085a.264.264 0 0 0-.241-.058l-4.583 1.008a.288.288 0 0 0-.172.482zm-6.749 1.822l2.108 2.292c.087.104.228.145.355.104l4.687-1.272a.367.367 0 0 0 .136-.631l-2.291-1.97a.366.366 0 0 0-.31-.069l-4.445.974a.367.367 0 0 0-.24.572zm21.142-13.98l2.292 2.521c.056.058.14.08.218.057l5.042-1.375a.206.206 0 0 0 .158-.245.211.211 0 0 0-.077-.122l-2.602-2.201a.277.277 0 0 0-.184 0l-4.778 1.055a.218.218 0 0 0-.069.31zm-.928 4.526l2.212 2.395a.296.296 0 0 0 .287.08l4.87-1.329a.286.286 0 0 0 .103-.493l-2.464-2.085a.283.283 0 0 0-.252-.057l-4.583 1.008a.297.297 0 0 0-.233.35.262.262 0 0 0 .06.131zm-6.601 1.822l2.2 2.383a.33.33 0 0 0 .298.092l4.858-1.329a.297.297 0 0 0 .115-.504l-2.475-2.074a.327.327 0 0 0-.252-.069l-4.584 1.02a.286.286 0 0 0-.16.481zm-26.584-2.612l2.43 2.59c.072.07.176.1.274.08l5.237-1.215a.286.286 0 0 0 .138-.493l-2.751-2.589a.275.275 0 0 0-.264-.069l-4.927 1.215a.287.287 0 0 0-.137.481zm-7.001 1.707l2.292 2.475a.356.356 0 0 0 .344.103l5.065-1.146a.366.366 0 0 0 .172-.619l-2.625-2.474a.356.356 0 0 0-.332-.081l-4.778 1.146a.355.355 0 0 0-.138.596zm-7.483 5.81l1.73 2.773c.077.131.23.197.378.161l5.867-1.306a.356.356 0 0 0 .218-.562l-1.937-2.681a.366.366 0 0 0-.366-.149l-5.661 1.215a.366.366 0 0 0-.229.549zm-38.398 1.031l5.787-1.34a.354.354 0 0 1 .344.126l1.02 1.34a.333.333 0 0 1-.195.528l-5.993 1.398a.331.331 0 0 1-.367-.161l-.813-1.397a.333.333 0 0 1 .217-.494zm7.963-1.73l5.729-1.341a.32.32 0 0 1 .344.126l1.02 1.329a.344.344 0 0 1-.194.539l-5.993 1.398a.344.344 0 0 1-.367-.161l-.814-1.397a.334.334 0 0 1 .275-.493zm7.689-1.662l5.787-1.33a.333.333 0 0 1 .344.115l1.02 1.34a.332.332 0 0 1-.195.527l-5.993 1.398a.319.319 0 0 1-.366-.15l-.814-1.397a.344.344 0 0 1 .217-.503zm7.506-1.696l5.798-1.34a.321.321 0 0 1 .344.125l1.008 1.33a.344.344 0 0 1-.183.538l-6.004 1.387a.345.345 0 0 1-.367-.149l-.813-1.398a.344.344 0 0 1 .217-.493zm7.609-1.696l5.729-1.329a.376.376 0 0 1 .366.137l.986 1.295a.366.366 0 0 1-.206.572l-5.947 1.387a.354.354 0 0 1-.39-.172l-.79-1.352a.367.367 0 0 1 .252-.538zm7.39-1.535l5.729-1.33a.358.358 0 0 1 .367.126l.985 1.307a.356.356 0 0 1-.207.562l-5.947 1.386a.367.367 0 0 1-.39-.171l-.791-1.353a.366.366 0 0 1 .254-.527zm7.243-1.512l5.305-1.283a.354.354 0 0 1 .344.103l1.032 1.077a.367.367 0 0 1-.172.596l-5.249 1.318a.344.344 0 0 1-.344-.092l-1.146-1.146a.365.365 0 0 1 .23-.573zm7.024-1.616l5.466-1.329a.3.3 0 0 1 .287.08l1.146 1.203a.275.275 0 0 1-.137.47l-5.397 1.363a.297.297 0 0 1-.275-.08l-1.215-1.226a.287.287 0 0 1 .125-.481zm7.024-1.651l5.466-1.329a.25.25 0 0 1 .275.081l1.146 1.146a.288.288 0 0 1-.001.406.277.277 0 0 1-.137.075l-5.397 1.364a.298.298 0 0 1-.275-.081l-1.146-1.226a.286.286 0 0 1 .069-.436zm7.012-1.443l5.466-1.329c.1-.02.202.01.275.08l1.146 1.204a.299.299 0 0 1-.149.481l-5.352 1.353a.3.3 0 0 1-.275-.069l-1.203-1.226a.297.297 0 0 1 .092-.494zm6.647-1.593l5.626-1.363a.195.195 0 0 1 .206.057l1.261 1.318a.206.206 0 0 1-.103.355l-5.557 1.397a.195.195 0 0 1-.206-.057l-1.329-1.352a.217.217 0 0 1 .102-.355zm6.714-1.433l5.638-1.375a.204.204 0 0 1 .194.069l1.261 1.317a.206.206 0 0 1-.103.355l-5.558 1.421a.197.197 0 0 1-.207-.058l-1.329-1.352a.218.218 0 0 1-.021-.307.241.241 0 0 1 .125-.07zm6.692-1.534l5.214-1.146a.227.227 0 0 1 .217.08l1.009 1.238a.206.206 0 0 1-.115.332l-4.893 1.295a.197.197 0 0 1-.207-.058l-1.329-1.341a.217.217 0 0 1-.066-.3.215.215 0 0 1 .17-.1zm6.395-1.468l5.214-1.146a.205.205 0 0 1 .217.068l.997 1.238a.217.217 0 0 1-.103.344l-4.892 1.295a.284.284 0 0 1-.218-.058l-1.317-1.352a.217.217 0 1 1 .102-.389zm-88.852 27.467l1.926 2.739a.32.32 0 0 0 .343.137l10.026-2.349a.332.332 0 0 0 .195-.527l-2.132-2.807a.33.33 0 0 0-.344-.114l-9.82 2.394a.344.344 0 0 0-.194.527zm3.06 3.679l1.914 3.048a.343.343 0 0 0 .367.149l12.112-2.875a.334.334 0 0 0 .183-.539l-2.395-2.968a.334.334 0 0 0-.344-.114l-11.631 2.796a.332.332 0 0 0-.206.503zm2.715 4.033l2.292 3.312c.078.116.22.171.355.138l16.042-3.965a.344.344 0 0 0 .184-.538l-2.579-3.312a.357.357 0 0 0-.344-.126l-15.859 3.976a.332.332 0 0 0-.091.515zm36.726-3.621l2.933 3.541a.346.346 0 0 0 .356.114l35.304-8.812a.354.354 0 0 0 .16-.596l-3.598-3.586a.374.374 0 0 0-.344-.091l-34.629 8.857a.355.355 0 0 0-.182.573zm36.439-9.132l3.438 3.438a.298.298 0 0 0 .287.08l7.23-1.937a.287.287 0 0 0 .126-.481l-3.587-3.519a.298.298 0 0 0-.274-.068l-7.093 2.039a.299.299 0 0 0-.127.448zm17.463-2.178l1.582 1.661a.197.197 0 0 0 .207.058l5.351-1.443a.206.206 0 0 0 .092-.355l-1.902-1.799a.229.229 0 0 0-.207 0l-5.031 1.57a.22.22 0 0 0-.102.291l.01.017zm4.56-3.575l1.879 1.971a.218.218 0 0 0 .229.057l4.916-1.708a.206.206 0 0 0 .081-.355l-1.879-1.661a.194.194 0 0 0-.195 0l-4.961 1.386a.218.218 0 0 0-.076.298c.001.005.004.008.006.012z"/><path d="M203.898 451.036l-1.352-1.146a.217.217 0 0 1 0-.367l4.904-1.695a.197.197 0 0 1 .218 0l1.536 1.478a.218.218 0 0 1-.104.367l-5.076 1.317a.207.207 0 0 1-.126.046zm5.03-3.026c.424.402 1.146 1.215 1.444 1.49.059.052.14.073.217.057l5.1-1.386a.217.217 0 0 0 .091-.368l-1.811-1.627a.216.216 0 0 0-.217 0l-4.733 1.524a.208.208 0 0 0-.091.31zm-14.323-3.231l2.727 2.635a.205.205 0 0 0 .207.057l13.154-3.438a.218.218 0 0 0 .092-.367l-3.197-2.647a.192.192 0 0 0-.194 0l-12.696 3.438a.206.206 0 0 0-.093.322zm-.894-4.056l2.819 2.51a.227.227 0 0 0 .194 0l9.9-2.292a.217.217 0 0 0 .08-.378l-3.243-2.715a.183.183 0 0 0-.184 0l-9.476 2.475a.217.217 0 0 0-.193.24c.01.065.046.125.103.16zm.905-4.321l2.67 2.384a.204.204 0 0 0 .195 0l5.077-1.146a.218.218 0 0 0 .092-.378l-3.163-2.671a.2.2 0 0 0-.195 0l-4.583 1.467a.218.218 0 0 0-.093.344zm-6.955-2.371l2.578 2.349a.245.245 0 0 0 .195 0l8.021-1.913a.206.206 0 0 0 .081-.367l-3.071-2.578a.251.251 0 0 0-.194 0l-7.574 2.143a.218.218 0 0 0-.036.366z"/></g><path fill="#464A5F" d="M96.758 453.419l1.753 2.819c.075.121.217.18.355.148l5.913-1.317a.344.344 0 0 0 .206-.528l-1.96-2.761a.368.368 0 0 0-.344-.138l-5.729 1.227a.343.343 0 0 0-.194.55zm7.723-1.638l1.753 2.818a.33.33 0 0 0 .366.149l5.913-1.318a.343.343 0 0 0 .16-.505l-1.96-2.727a.332.332 0 0 0-.344-.126l-5.729 1.226c-.174.078-.251.281-.174.455a.26.26 0 0 1 .015.028zm7.518-1.616l1.753 2.819a.32.32 0 0 0 .355.149l5.913-1.317a.332.332 0 0 0 .206-.517l-1.959-2.738a.336.336 0 0 0-.344-.126l-5.729 1.227a.331.331 0 0 0-.195.503zm7.379-1.593l1.73 2.772c.077.132.23.197.378.161l5.867-1.307a.355.355 0 0 0 .218-.561l-1.925-2.682a.401.401 0 0 0-.378-.148l-5.661 1.215a.366.366 0 0 0-.229.55zm-.596 4.354l1.753 2.831a.368.368 0 0 0 .367.149l5.913-1.318a.345.345 0 0 0 .195-.527l-1.959-2.728a.331.331 0 0 0-.344-.137l-5.729 1.226a.346.346 0 0 0-.196.504zm-7.655 1.57l1.753 2.819a.342.342 0 0 0 .355.16l5.925-1.318a.345.345 0 0 0 .194-.527l-1.959-2.704a.332.332 0 0 0-.344-.138l-5.729 1.226a.333.333 0 0 0-.195.482zm4.985 3.472l1.753 2.819a.317.317 0 0 0 .355.148l5.924-1.317a.344.344 0 0 0 .195-.527l-1.959-2.728a.332.332 0 0 0-.344-.126l-5.729 1.226a.333.333 0 0 0-.195.505zm7.047 2.98l1.753 2.83a.33.33 0 0 0 .355.149l5.913-1.317a.344.344 0 0 0 .206-.528l-1.959-2.727a.344.344 0 0 0-.344-.138l-5.729 1.227a.332.332 0 0 0-.195.504zm1.215 4.961l2.831 3.542a.343.343 0 0 0 .354.114l5.959-1.547a.332.332 0 0 0 .172-.538l-2.922-3.575a.33.33 0 0 0-.344-.115l-5.867 1.582a.342.342 0 0 0-.183.537zm7.78-1.959l2.899 3.655a.355.355 0 0 0 .356.115l7.78-2.154a.332.332 0 0 0 .16-.538l-2.922-3.575a.343.343 0 0 0-.355-.115l-7.746 2.085a.332.332 0 0 0-.172.527zm-15.4 3.873l2.831 3.541a.355.355 0 0 0 .354.115l5.959-1.547a.331.331 0 0 0 .172-.539l-2.922-3.575a.33.33 0 0 0-.343-.114l-5.867 1.582a.342.342 0 0 0-.184.537zm-8.044 2.051l2.83 3.552a.333.333 0 0 0 .344.115l5.958-1.547a.344.344 0 0 0 .184-.538l-2.934-3.575a.332.332 0 0 0-.344-.115l-5.867 1.582a.332.332 0 0 0-.171.526zm18.07-23.044l1.73 2.785c.079.128.23.193.378.16l5.867-1.306a.369.369 0 0 0 .218-.562l-1.925-2.692a.355.355 0 0 0-.367-.137l-5.729 1.214a.367.367 0 0 0-.172.538zm-.469 4.332l1.73 2.784c.079.128.23.193.378.161l5.867-1.307a.355.355 0 0 0 .218-.562l-1.925-2.682a.366.366 0 0 0-.366-.149l-5.729 1.215a.367.367 0 0 0-.173.54zm7.654-5.959l1.73 2.785a.37.37 0 0 0 .39.161l5.867-1.307a.366.366 0 0 0 .206-.561l-1.925-2.681a.364.364 0 0 0-.367-.149l-5.672 1.214a.367.367 0 0 0-.229.538zm21.016-4.583l2.44 2.59a.274.274 0 0 0 .275.08l5.236-1.214a.287.287 0 0 0 .137-.481l-2.75-2.601a.276.276 0 0 0-.264-.069l-4.927 1.214a.298.298 0 0 0-.21.366.333.333 0 0 0 .063.115zm6.725-1.547l2.43 2.578a.288.288 0 0 0 .275.092l5.236-1.214a.287.287 0 0 0 .138-.493l-2.75-2.59a.275.275 0 0 0-.263-.068l-4.928 1.215a.285.285 0 0 0-.138.48zm-6.577 5.74l2.44 2.59a.301.301 0 0 0 .275.081l5.236-1.215a.287.287 0 0 0 .126-.493l-2.739-2.59a.296.296 0 0 0-.274-.069l-4.927 1.215a.298.298 0 0 0-.137.481zm-6.932 1.604l2.292 2.464a.332.332 0 0 0 .344.103l5.065-1.146a.356.356 0 0 0 .172-.607l-2.625-2.476a.335.335 0 0 0-.333-.092l-4.778 1.146a.368.368 0 0 0-.137.608zm5.282 7.793l2.292 2.475a.356.356 0 0 0 .344.103l5.064-1.146a.367.367 0 0 0 .172-.619l-2.624-2.475a.357.357 0 0 0-.333-.081l-4.778 1.146a.355.355 0 0 0-.137.597zm-7.185 1.627l2.292 2.475a.344.344 0 0 0 .344.103l5.064-1.146a.367.367 0 0 0 .171-.619l-2.532-2.498a.354.354 0 0 0-.332-.08l-4.778 1.146a.355.355 0 0 0-.229.619zm-7.264 1.81l2.292 2.475c.09.09.219.129.344.103l5.077-1.146a.356.356 0 0 0 .161-.608l-2.624-2.475a.354.354 0 0 0-.332-.092l-4.778 1.146a.367.367 0 0 0-.215.472c.014.048.041.09.075.125zm-7.746 1.524l2.36 2.51a.33.33 0 0 0 .321.091l5.122-1.146a.333.333 0 0 0 .149-.573l-2.658-2.543a.342.342 0 0 0-.31-.092l-4.824 1.146a.332.332 0 0 0-.16.607zm14.93-7.849l2.292 2.475a.333.333 0 0 0 .332.103l5.076-1.146a.367.367 0 0 0 .16-.62l-2.613-2.474a.358.358 0 0 0-.333-.081l-4.778 1.146a.366.366 0 0 0-.136.597zm-7.001 1.604l2.292 2.476a.38.38 0 0 0 .344.103l5.065-1.146a.356.356 0 0 0 .172-.607l-2.624-2.475a.387.387 0 0 0-.333-.091l-4.778 1.146a.368.368 0 0 0-.138.594zm-7.505 1.616l2.292 2.475c.085.09.211.129.333.104l5.077-1.146a.355.355 0 0 0 .16-.608l-2.612-2.475a.368.368 0 0 0-.333-.092l-4.778 1.146a.355.355 0 0 0-.231.446.326.326 0 0 0 .092.15zm-7.689 1.822l2.36 2.509c.08.091.206.127.321.092l5.122-1.146a.332.332 0 0 0 .16-.573l-2.658-2.51a.367.367 0 0 0-.321-.092l-4.824 1.146a.344.344 0 0 0-.16.574zm29.426-6.738l2.292 2.475a.367.367 0 0 0 .344.103l5.064-1.146a.355.355 0 0 0 .172-.607l-2.625-2.475a.391.391 0 0 0-.333-.092l-4.778 1.146a.356.356 0 0 0-.136.596zm-12.25-1.409l2.292 2.475a.353.353 0 0 0 .344.103l5.076-1.146a.367.367 0 0 0 .161-.619l-2.624-2.475a.345.345 0 0 0-.333-.081l-4.767 1.146a.369.369 0 0 0-.149.597zm26.997-10.794l2.544 2.715a.204.204 0 0 0 .206.058l5.42-1.249a.218.218 0 0 0 .091-.367l-2.876-2.715a.244.244 0 0 0-.195-.058l-5.087 1.261a.218.218 0 0 0-.151.269c.01.031.026.06.048.086zm6.532-1.444l2.555 2.715a.217.217 0 0 0 .206.057l5.41-1.249a.22.22 0 0 0 .162-.263.217.217 0 0 0-.059-.104l-2.876-2.716a.205.205 0 0 0-.195-.057l-5.099 1.26a.207.207 0 0 0-.167.239c.007.047.03.088.063.118zm6.703-1.547l2.292 2.521a.21.21 0 0 0 .207.058l5.053-1.375a.219.219 0 0 0 .14-.274.21.21 0 0 0-.06-.092l-2.612-2.201a.21.21 0 0 0-.183 0l-4.767 1.055a.218.218 0 0 0-.076.298l.006.01zm7.059 2.349l2.292 2.521c.056.059.14.08.217.058l5.042-1.375a.207.207 0 0 0 .081-.367l-2.601-2.2a.22.22 0 0 0-.184 0l-4.767 1.054a.217.217 0 0 0-.089.294l.009.015zm-.848 4.572l2.212 2.395a.287.287 0 0 0 .287.08l4.858-1.33a.286.286 0 0 0 .114-.492l-2.475-2.085a.263.263 0 0 0-.241 0l-4.583 1.008a.298.298 0 0 0-.172.424zm-5.741 5.844l2.212 2.395a.263.263 0 0 0 .286.08l4.859-1.318a.298.298 0 0 0 .115-.504l-2.475-2.086a.263.263 0 0 0-.241-.057l-4.583 1.019a.276.276 0 0 0-.173.471zm-6.898 1.776l2.211 2.395a.319.319 0 0 0 .287.08l4.858-1.33a.297.297 0 0 0 .115-.504l-2.475-2.074a.261.261 0 0 0-.241-.057l-4.584 1.008a.298.298 0 0 0-.171.482zm13.395-3.506l2.211 2.395c.07.083.184.115.287.08l4.858-1.329a.288.288 0 0 0 .116-.494l-2.464-2.085a.286.286 0 0 0-.252-.058l-4.583 1.021a.286.286 0 0 0-.173.47zm-1.123 5.168l3.334 2.991c.074.069.18.092.275.057l4.824-1.363a.287.287 0 0 0 .116-.493l-3.599-3.151a.284.284 0 0 0-.286-.057l-4.584 1.524a.286.286 0 0 0-.08.492zm-11.676-10.612l2.292 2.521a.227.227 0 0 0 .217.069l5.042-1.375a.216.216 0 0 0 .151-.268.22.22 0 0 0-.071-.11l-2.602-2.189a.197.197 0 0 0-.183 0l-4.768 1.054a.206.206 0 0 0-.092.277l.014.021zm-6.521 1.617l2.212 2.395a.287.287 0 0 0 .287.08l4.858-1.33a.286.286 0 0 0 .115-.493l-2.464-2.085a.286.286 0 0 0-.252 0l-4.583 1.008a.297.297 0 0 0-.173.425zm-1.34 4.629l2.211 2.383a.274.274 0 0 0 .287.08l4.87-1.318a.299.299 0 0 0 .104-.504l-2.463-2.074a.264.264 0 0 0-.252-.069l-4.583 1.02a.287.287 0 0 0-.174.482zm-6.864 1.661l2.211 2.383a.299.299 0 0 0 .298.081l4.859-1.317a.3.3 0 0 0 .104-.504l-2.463-2.086a.287.287 0 0 0-.252-.057l-4.583 1.02a.297.297 0 0 0-.234.351.265.265 0 0 0 .06.129zm1.238-4.732l2.212 2.383c.072.08.181.115.286.092l4.859-1.33a.297.297 0 0 0 .114-.504l-2.475-2.074a.31.31 0 0 0-.241-.069l-4.583 1.02a.288.288 0 0 0-.172.482zm5.74 7.323l2.212 2.395c.07.083.184.115.287.081l4.858-1.318a.298.298 0 0 0 .115-.504l-2.476-2.086a.269.269 0 0 0-.241 0l-4.583 1.02a.276.276 0 0 0-.172.412zm-6.749 1.833l2.108 2.292c.09.098.228.138.355.104l4.687-1.284a.356.356 0 0 0 .137-.619l-2.291-1.971a.335.335 0 0 0-.31-.081l-4.445.986a.367.367 0 0 0-.241.573zm21.142-13.98l2.292 2.51a.23.23 0 0 0 .218.069l5.042-1.375a.216.216 0 0 0 .151-.268.222.222 0 0 0-.071-.111l-2.602-2.188a.194.194 0 0 0-.184 0l-4.778 1.054a.206.206 0 0 0-.089.278c.007.011.013.021.021.031zm-.928 4.526l2.212 2.395c.071.081.183.112.287.081l4.87-1.318a.298.298 0 0 0 .103-.504l-2.464-2.085a.286.286 0 0 0-.252-.058l-4.583 1.02a.285.285 0 0 0-.237.328.26.26 0 0 0 .064.141zm-6.601 1.81l2.2 2.395a.323.323 0 0 0 .298.081l4.858-1.33a.288.288 0 0 0 .204-.351.288.288 0 0 0-.089-.142l-2.475-2.085a.284.284 0 0 0-.252-.058l-4.584 1.008a.287.287 0 0 0-.16.482zm-26.584-2.612l2.43 2.589a.286.286 0 0 0 .274.092l5.237-1.214a.287.287 0 0 0 .138-.493l-2.751-2.59a.286.286 0 0 0-.264-.08l-4.927 1.226a.275.275 0 0 0-.137.47zm-7.001 1.719l2.292 2.463a.357.357 0 0 0 .344.115l5.065-1.146a.355.355 0 0 0 .172-.607l-2.625-2.475a.331.331 0 0 0-.332-.091l-4.778 1.146a.366.366 0 0 0-.138.595zm-7.483 5.798l1.73 2.785c.079.128.23.192.378.16l5.867-1.307a.365.365 0 0 0 .217-.561l-1.937-2.693a.342.342 0 0 0-.366-.137l-5.661 1.215a.354.354 0 0 0-.228.538zm-38.398 1.02l5.787-1.341a.354.354 0 0 1 .344.126l1.02 1.34a.332.332 0 0 1-.195.527l-5.993 1.398a.32.32 0 0 1-.367-.16l-.813-1.386a.345.345 0 0 1 .217-.504zm7.963-1.719l5.729-1.34a.356.356 0 0 1 .344.125l1.02 1.341a.332.332 0 0 1-.195.527l-5.993 1.398a.334.334 0 0 1-.367-.16l-.814-1.398a.333.333 0 0 1 .276-.493zm7.689-1.65l5.787-1.34a.332.332 0 0 1 .344.126l1.02 1.329a.344.344 0 0 1-.194.538l-5.993 1.398a.33.33 0 0 1-.366-.161l-.814-1.398a.333.333 0 0 1 .216-.492zm7.506-1.707l5.729-1.341a.357.357 0 0 1 .344.126l1.008 1.341a.331.331 0 0 1-.183.527l-6.004 1.397a.345.345 0 0 1-.367-.16l-.813-1.398a.343.343 0 0 1 .286-.492zm7.609-1.685l5.729-1.33a.38.38 0 0 1 .366.126l.986 1.306a.355.355 0 0 1-.207.562l-5.947 1.387a.355.355 0 0 1-.39-.172l-.79-1.352a.354.354 0 0 1 .253-.527zm7.39-1.547l5.729-1.329a.355.355 0 0 1 .367.137l.985 1.295a.356.356 0 0 1-.207.562l-5.947 1.386a.367.367 0 0 1-.39-.171l-.791-1.353a.368.368 0 0 1 .254-.527zm7.243-1.501l5.305-1.295a.377.377 0 0 1 .344.103l1.032 1.146a.367.367 0 0 1-.172.596l-5.249 1.238a.344.344 0 0 1-.344-.092l-1.146-1.146a.355.355 0 0 1 .23-.55zm7.024-1.65l5.466-1.329a.33.33 0 0 1 .287.08l1.146 1.203a.286.286 0 0 1-.137.482l-5.397 1.352a.275.275 0 0 1-.275-.08l-1.215-1.226a.286.286 0 0 1-.004-.405.26.26 0 0 1 .129-.077zm7.024-1.627l5.466-1.33c.099-.02.203.01.275.08l1.146 1.204a.286.286 0 0 1-.138.48l-5.397 1.353a.273.273 0 0 1-.275-.081l-1.146-1.226a.287.287 0 0 1 .069-.48zm7.012-1.433l5.466-1.329c.1-.026.206.004.275.08l1.146 1.203a.288.288 0 0 1-.149.47l-5.352 1.363a.309.309 0 0 1-.275-.08l-1.203-1.226a.285.285 0 0 1 .092-.481zm6.647-1.592l5.626-1.375a.195.195 0 0 1 .206.058l1.261 1.329a.217.217 0 0 1-.104.355l-5.557 1.398a.25.25 0 0 1-.206-.058l-1.329-1.353a.216.216 0 0 1 .103-.354zm6.714-1.444l5.638-1.364a.182.182 0 0 1 .194.057l1.261 1.318a.218.218 0 0 1-.103.367l-5.558 1.387a.197.197 0 0 1-.207-.058l-1.329-1.341a.218.218 0 0 1 .104-.366zm6.692-1.536l5.214-1.146a.205.205 0 0 1 .217.068l1.009 1.238a.216.216 0 0 1-.039.305.22.22 0 0 1-.076.039l-4.893 1.294a.255.255 0 0 1-.207-.057l-1.329-1.353a.217.217 0 0 1-.042-.305.229.229 0 0 1 .146-.083zm6.395-1.467l5.214-1.146a.229.229 0 0 1 .217.069l.997 1.237a.207.207 0 0 1-.103.344l-4.892 1.295a.217.217 0 0 1-.218-.057l-1.317-1.34a.218.218 0 0 1 .102-.402zM99.302 457.51l1.926 2.738a.318.318 0 0 0 .343.137l10.026-2.349a.333.333 0 0 0 .195-.527l-2.132-2.796a.332.332 0 0 0-.344-.126l-9.82 2.407a.33.33 0 0 0-.194.516zm3.06 3.713l1.914 3.06c.081.12.226.178.367.149l12.112-2.888a.333.333 0 0 0 .183-.539l-2.395-2.968a.355.355 0 0 0-.344-.115l-11.631 2.796a.332.332 0 0 0-.206.505zm2.715 4.045l2.292 3.312a.333.333 0 0 0 .355.126l16.042-3.965a.332.332 0 0 0 .183-.527l-2.579-3.323a.333.333 0 0 0-.344-.115l-15.859 3.965a.343.343 0 0 0-.09.527zm36.726-3.622l2.933 3.53a.346.346 0 0 0 .356.114l35.304-8.8a.367.367 0 0 0 .16-.608l-3.598-3.575c-.089-.092-.221-.127-.344-.092l-34.629 8.846a.366.366 0 0 0-.182.585zm36.439-9.132l3.438 3.438a.298.298 0 0 0 .287.069l7.23-1.937a.287.287 0 0 0 .126-.482l-3.587-3.506a.273.273 0 0 0-.274-.08l-7.116 1.971a.297.297 0 0 0-.213.363.288.288 0 0 0 .109.164zm17.463-2.189l1.582 1.662a.195.195 0 0 0 .207.058l5.351-1.433a.217.217 0 0 0 .091-.367l-1.902-1.787a.205.205 0 0 0-.207-.058l-5.031 1.57a.217.217 0 0 0-.091.355zm4.56-3.563l1.879 1.971c.07.047.16.047.229 0l4.916-1.696a.218.218 0 0 0 .081-.367l-1.879-1.604a.17.17 0 0 0-.195 0l-4.961 1.386a.218.218 0 0 0-.076.298l.006.012zm3.633 3.403l-1.352-1.088a.217.217 0 0 1 0-.378l4.904-1.696a.218.218 0 0 1 .218 0l1.536 1.49a.217.217 0 0 1-.104.355l-5.076 1.318a.216.216 0 0 1-.126-.001zm5.03-2.968c.424.412 1.146 1.215 1.444 1.489.056.059.14.081.217.058l5.1-1.375a.217.217 0 0 0 .091-.367l-1.811-1.639a.244.244 0 0 0-.217 0l-4.733 1.524a.218.218 0 0 0-.102.291l.011.019zm-14.323-3.277l2.727 2.636a.235.235 0 0 0 .207 0l13.154-3.438a.218.218 0 0 0 .164-.261.225.225 0 0 0-.072-.117l-3.197-2.635a.235.235 0 0 0-.194 0l-12.696 3.438a.218.218 0 0 0-.164.261c.01.045.035.086.071.116zm-.894-4.068l2.819 2.51c.06.035.134.035.194 0l9.9-2.292a.205.205 0 0 0 .158-.245.203.203 0 0 0-.078-.122l-3.243-2.716a.188.188 0 0 0-.184 0l-9.476 2.544a.218.218 0 0 0-.111.288l.021.033zm.905-4.32l2.67 2.395a.245.245 0 0 0 .195 0l5.077-1.146a.207.207 0 0 0 .092-.367l-3.163-2.727a.17.17 0 0 0-.195 0l-4.583 1.478a.206.206 0 0 0-.093.367zm-6.955-2.372l2.578 2.349a.204.204 0 0 0 .195 0l8.021-1.902a.217.217 0 0 0 .08-.378l-3.071-2.579a.202.202 0 0 0-.194 0l-7.574 2.132c-.11.049-.159.178-.11.287a.215.215 0 0 0 .075.091z"/></svg>