<svg width="20" height="18" viewBox="0 0 20 18" fill="none" xmlns="http://www.w3.org/2000/svg">
<path d="M20 3.02205C18.7419 3.08003 18.7694 3.0753 18.6272 3.08721L19.3723 0.959367C19.3723 0.959367 17.0465 1.81493 16.4569 1.96797C14.9084 0.576218 12.6068 0.514725 10.9613 1.52608C9.6138 2.35448 8.89053 3.77706 9.13177 5.43981C6.50925 5.07589 4.29962 3.83275 2.55508 1.73711L2.00333 1.07442L1.59103 1.83156C1.06995 2.78829 0.896912 3.88219 1.10367 4.9117C1.18851 5.33407 1.3327 5.7369 1.53244 6.1141L1.05911 5.93068L1.00296 6.72155C0.946045 7.52492 1.21353 8.46273 1.7186 9.22994C1.86081 9.44601 2.04391 9.68328 2.276 9.91735L2.0314 9.87982L2.32986 10.786C2.72217 11.9767 3.53699 12.8979 4.59442 13.4099C3.53836 13.8581 2.68524 14.144 1.28296 14.6053L0 15.0271L1.185 15.675C1.63681 15.922 3.23334 16.747 4.81079 16.9945C8.31726 17.5445 12.2652 17.0966 14.9229 14.703C17.1616 12.6868 17.8961 9.81893 17.7435 6.83446C17.7205 6.38265 17.8442 5.95144 18.092 5.62047C18.5884 4.95778 19.9969 3.02648 20 3.02205ZM17.155 4.91857C16.7435 5.46804 16.5373 6.16979 16.5742 6.89428C16.7282 9.90469 15.9091 12.2393 14.1396 13.8329C12.0724 15.6946 8.73825 16.4254 4.99222 15.8378C4.31381 15.7314 3.61267 15.4932 3.03238 15.2553C4.20807 14.8508 5.11597 14.4903 6.58218 13.7963L8.629 12.8275L6.36917 12.6829C5.28671 12.6136 4.38538 12.089 3.83133 11.2372C4.12552 11.2201 4.40918 11.1725 4.69162 11.0938L6.84692 10.4935L4.67361 9.9613C3.61755 9.70266 3.01559 9.07079 2.69653 8.58617C2.48703 8.26772 2.35016 7.94149 2.26807 7.64074C2.48596 7.69918 2.74002 7.74084 3.14972 7.78142L5.16129 7.9804L3.5675 6.73711C2.41913 5.84142 1.95892 4.49575 2.2963 3.20211C5.88028 6.91946 10.0883 6.64007 10.5119 6.73833C10.4187 5.83272 10.4163 5.83059 10.3918 5.74437C9.8494 3.8268 11.0382 2.85314 11.5744 2.52355C12.6944 1.83522 14.4722 1.73146 15.7036 2.8655C15.9695 3.11025 16.3292 3.20653 16.6658 3.12291C16.9679 3.04784 17.2159 2.96834 17.4586 2.88182L16.9533 4.325L17.5984 4.32546C17.4767 4.48873 17.3306 4.68419 17.155 4.91857Z" fill="#B86B77"/>
</svg>
